<?xml version="1.0" encoding="utf-8"?>
<!DOCTYPE svg PUBLIC "-//W3C//DTD SVG 1.0//EN" "http://www.w3.org/TR/2001/REC-SVG-20010904/DTD/svg10.dtd">
<svg version="1.0" xmlns="http://www.w3.org/2000/svg" width="736px" height="736px" viewBox="0 0 736 736" preserveAspectRatio="xMidYMid meet">
 <g fill="#fefefd">
  <path d="M0 368 l0 -368 368 0 368 0 0 368 0 368 -368 0 -368 0 0 -368z m297.55 179.30 c9.65 -1.20 17.95 -3.60 25.20 -7.20 11.65 -5.75 22 -14.35 30.75 -25.45 l2.10 -2.65 -1.35 0 c-2.40 0 -11.40 -2.05 -16 -3.60 -13.45 -4.60 -26.20 -13.70 -32.80 -23.45 -1.05 -1.60 -2.20 -3.50 -2.45 -4.20 -0.55 -1.50 -0.80 -1.50 -6.20 -0.25 -16.75 3.90 -32.75 13.55 -44.45 26.85 -3.80 4.30 -9.75 12.70 -12.40 17.45 -1.40 2.65 -1.55 3.20 -1 3.90 1.40 1.65 12.05 8.35 17.10 10.75 4.90 2.30 15.05 5.75 20.85 7.05 6.50 1.50 13.05 1.75 20.65 0.80z m154.20 0.15 c14.90 -1.75 29.35 -7.20 41.35 -15.70 l4.85 -3.40 -1.80 -3.30 c-1.90 -3.45 -2.45 -4.30 -6.25 -9.95 -11.20 -16.45 -29.30 -29.10 -48.20 -33.80 -8.60 -2.10 -7.70 -2.25 -9.70 1.30 -7.15 12.70 -25.85 24.80 -43.90 28.45 -2.60 0.55 -5.35 0.95 -6.20 0.95 l-1.50 0 2.10 2.65 c1.15 1.40 4.55 5.10 7.55 8.20 14.05 14.40 28.95 22.05 47.70 24.40 6.50 0.85 8.55 0.85 14 0.20z m-224.50 -42.05 c5.20 -7.90 16.05 -19.80 22.50 -24.75 5.50 -4.20 14.05 -9.55 19.95 -12.40 l6.55 -3.25 -7.25 0 c-16.70 -0.05 -35.65 -3.90 -49.35 -10.05 l-3.20 -1.45 -2.35 1.25 c-6.80 3.60 -12.15 7.25 -18.95 12.90 -4.75 4 -8.75 8.25 -13.30 14.25 -2.95 3.90 -6.85 10.15 -6.85 11 0 0.50 3.20 2.60 8.10 5.30 7.95 4.35 21.50 8.70 30.40 9.75 2.90 0.35 5.60 0.70 6 0.80 0.40 0.05 1.80 0.15 3.05 0.20 l2.30 0.05 2.40 -3.60z m294.75 2.55 c11.90 -1.45 26.70 -6.75 36.65 -13.15 2.75 -1.80 2.90 -1.95 2.20 -2.95 -0.40 -0.60 -1 -1.65 -1.40 -2.30 -0.40 -0.70 -2.35 -3.60 -4.40 -6.50 -7.20 -10.25 -19.45 -21.05 -30.75 -27.05 l-4.60 -2.50 -4.25 1.75 c-8.70 3.65 -21.05 7 -31.20 8.50 -3 0.40 -9.70 0.90 -14.85 1.10 l-9.35 0.30 5.10 2.35 c5.65 2.60 13 6.90 17.60 10.40 5 3.75 12.40 10.40 15 13.45 4.65 5.30 9.35 11.40 11.35 14.55 l2 3.10 3.35 -0.25 c1.80 -0.15 5.20 -0.55 7.55 -0.80z m-239.35 -63.50 c2.95 -0.30 8.35 -1.15 12 -1.90 l6.60 -1.35 -0.15 -2.05 c-0.35 -5.80 -5.20 -20.95 -9.40 -29.30 -16.90 -33.75 -44.75 -55.45 -81.95 -63.80 -13.85 -3.10 -30 -2.95 -45.25 0.45 -2.45 0.55 -4.65 1 -4.80 1 -0.65 0 0.30 5.30 2.05 11.75 11.45 41.65 44.35 73.15 86.75 82.95 10.70 2.50 23.55 3.35 34.15 2.25z m190.85 -0.20 c18.15 -1.95 34.35 -7.30 48.50 -16 28.55 -17.60 48 -45.40 54.45 -78 0.25 -1.35 0.45 -2.50 0.40 -2.55 -0.40 -0.25 -11.60 -2.45 -15.35 -3.05 -6.05 -0.95 -19.85 -1.05 -26 -0.20 -11.35 1.55 -26.15 5.75 -34.40 9.80 -2 0.95 -3.80 1.75 -4 1.75 -0.80 0 -11.15 6.45 -16.80 10.45 -3.80 2.70 -8.35 6.60 -12.75 11 -13.75 13.65 -22.85 28.35 -28.80 46.30 -2.25 6.90 -4.60 16.55 -4.15 17.05 0.60 0.60 10.85 2.60 16.15 3.20 3.05 0.30 5.95 0.65 6.50 0.70 2.75 0.40 10.20 0.20 16.25 -0.45z m-124.70 -21.40 c0.60 -2.35 0.90 -5.25 0.90 -8.35 -0.05 -4.40 -0.30 -5.35 -2.85 -12.75 -1.50 -4.40 -4.60 -12.85 -6.85 -18.75 -5.15 -13.55 -6.10 -16.35 -8.20 -23.75 -5.75 -20.10 -6.15 -35.75 -1.30 -47.35 4.60 -11 15.70 -19.20 28.45 -21 4.90 -0.65 12.10 0.05 16.20 1.60 5.30 2 10.75 8.25 12.65 14.45 0.85 2.75 1.90 13.70 1.45 15.10 -0.25 0.65 0.10 1.60 1 2.75 3.50 4.55 5.05 10.80 4.50 18.10 l-0.35 4.60 -1.95 0 c-1.05 0 -1.95 -0.15 -1.95 -0.35 0 -0.45 -4.35 -6.05 -8.35 -10.80 -4.30 -5 -9.90 -9.30 -14.05 -10.75 -3 -1.05 -5.55 1.15 -6.35 5.40 -0.70 4.05 4 16.50 9.20 24.25 6.25 9.30 14.80 19.20 20.80 24 2.65 2.10 14.80 12.75 17.80 15.60 l1.80 1.70 0.85 -1.90 c0.50 -1.05 1.20 -2.55 1.55 -3.40 3.30 -7.15 8.30 -23.60 10.45 -34.25 4.55 -22.70 4.90 -39.60 1.30 -62.15 -6.15 -38.40 -25.40 -74.85 -53.90 -102.05 l-3.60 -3.50 -4.40 4.25 c-12.50 12.05 -23.15 25.75 -31.70 40.70 -12.25 21.50 -19.40 43.25 -22.75 68.95 -1.05 8.35 -1.20 27.95 -0.20 34.80 3.20 22.75 7.60 40.20 13.80 55.25 0.45 1.10 1.10 2.70 1.40 3.50 1 2.60 6.10 12.40 7.95 15.25 3.65 5.65 8.75 11.45 12.90 14.65 2.15 1.65 2.50 1.30 3.80 -3.80z m-55.85 -54.35 c-1.75 -7.85 -3.45 -18.55 -4.20 -26.40 -1.20 -12.70 -0.85 -36.15 0.70 -45.25 l0.40 -2.40 -2.55 -2.20 c-13.90 -11.85 -28.65 -19.35 -47.15 -24 -7.65 -1.90 -7.35 -1.95 -8.30 2.65 -1.90 9 -2.05 10.60 -2.05 20.85 0 11.05 0.40 14.15 2.90 24.15 1.20 4.70 4.40 14.45 5.35 16.15 0.25 0.50 2.20 1.55 4.30 2.45 6.60 2.70 17.75 8.85 23.90 13.20 8.75 6.10 16.40 12.90 22.80 20.10 2.55 2.85 4.65 5.15 4.75 5.05 0.05 -0.05 -0.35 -2 -0.85 -4.35z m159.75 -6.75 c11.20 -11.15 26.70 -21.55 40.45 -27.15 l4.55 -1.85 1.20 -3 c7.60 -19.10 9.55 -39.70 5.50 -58.25 -0.55 -2.60 -1.05 -4.80 -1.10 -4.85 -0.05 -0.05 -1.65 0.25 -3.55 0.65 -18.75 3.85 -34.10 11.10 -48.25 22.65 -5.50 4.50 -5.10 2.70 -4 16.30 1 12.95 0.45 34.10 -1.20 44.75 -1 6.95 -3.05 17.35 -4.10 21.25 -0.15 0.55 0.80 -0.25 2.10 -1.75 1.30 -1.50 5.10 -5.45 8.40 -8.75z m-75.60 -51.35 c-1.70 -2.45 -3.60 -4.30 -3.60 -3.50 0 0.75 3.90 5.60 4.55 5.60 0.25 0 -0.15 -0.95 -0.95 -2.10z"/>
  <path d="M380.60 291.90 c0.15 -1.20 0.75 -4.10 1.40 -6.50 1.10 -4.25 1.15 -4.40 0.30 -6.65 -0.60 -1.45 -1.70 -2.90 -3.15 -4.15 -1.25 -1 -3.15 -2.65 -4.20 -3.65 -1.90 -1.75 -1.95 -1.95 -1.95 -5.15 0 -7.15 4.10 -10.65 11.20 -9.60 9.70 1.45 10.25 17.05 1.25 34.90 -1.35 2.70 -1.55 2.90 -3.25 2.90 l-1.80 0 0.20 -2.10z"/>
  <path d="M359.65 287.30 c-2.70 -2.45 -8.05 -5.55 -10.45 -6.05 -1.15 -0.20 -2.50 0.05 -4.75 0.95 -2.10 0.90 -4.05 1.30 -6 1.30 -2.70 0 -3 -0.10 -4.30 -1.75 -4.05 -4.90 -4.05 -12.45 0 -15.45 2 -1.45 8.45 -1.75 11.75 -0.55 4.40 1.65 9.85 6.40 14.90 13 3.50 4.65 4.70 6.85 4.70 8.85 0 1.85 -0.05 1.90 -1.70 1.90 -1.30 0 -2.25 -0.50 -4.15 -2.20z"/>
  <path d="M369.80 284.40 c-0.15 -0.35 -0.45 -1.75 -0.80 -3.15 -1.35 -5.90 -4.85 -11.30 -8.30 -12.75 -1.15 -0.50 -3.40 -1.05 -5 -1.25 -4.55 -0.50 -5 -0.65 -5.60 -2 -0.35 -0.70 -0.60 -3.10 -0.60 -5.30 0 -4.65 1.15 -7.45 3.50 -8.70 2.20 -1.15 8.05 -1 10.50 0.25 5.75 2.95 10 15.35 10 29.30 l0 4.20 -1.75 0 c-1 0 -1.85 -0.30 -1.95 -0.60z"/>
 </g>
 <g fill="#ce9865">
  <path d="M281.65 549 c-7.25 -0.75 -19.15 -4.30 -27.10 -8.05 -6.90 -3.25 -18.55 -11.05 -18.55 -12.40 0 -1.05 4.15 -8.35 7.75 -13.50 8.65 -12.50 18.95 -21.80 31.75 -28.65 7.75 -4.15 21 -8.40 26.30 -8.40 1.90 0 2.30 0.15 2.70 1.25 1.60 4.15 7.95 11.55 13.55 15.75 11.90 8.95 23.95 14 36.90 15.40 1.75 0.20 3.30 0.60 3.40 0.85 0.20 0.60 -5.75 8.10 -9.85 12.45 -6.50 6.90 -15.55 13.60 -24.25 17.90 -12.15 6.05 -28.40 8.90 -42.60 7.40z"/>
  <path d="M436.25 548.75 c-18.75 -2.35 -33.70 -10 -47.70 -24.40 -7.60 -7.80 -11.50 -12.75 -10.70 -13.55 0.15 -0.15 1.15 -0.30 2.20 -0.30 1 0 3.95 -0.40 6.55 -0.95 18.05 -3.65 36.70 -15.70 43.90 -28.40 2.05 -3.70 2.35 -3.75 9.65 -2.10 17.55 3.90 32.80 12.90 44.85 26.50 3.50 4 5.70 6.95 9.80 13.10 1.90 2.85 5.20 9.25 5.20 10 0 1.10 -9.35 7.55 -15.85 10.95 -5.85 3.05 -16.50 6.85 -22.75 8.10 -9.20 1.85 -16.45 2.15 -25.15 1.05z"/>
  <path d="M218 510.25 c-0.40 -0.10 -3.10 -0.45 -6 -0.80 -8.90 -1.05 -22.50 -5.40 -30.40 -9.75 -3.50 -1.95 -9.60 -5.75 -9.60 -6 0 -0.05 1.15 -2.10 2.50 -4.50 8.80 -15.20 22.30 -27.85 38.80 -36.30 l3.10 -1.55 4.65 2.05 c15.75 6.85 32.40 10.05 51.85 10.10 11.20 0 11.90 0.40 5.50 2.95 -8.55 3.45 -18.75 9.35 -27.15 15.75 -6.35 4.80 -17.25 16.80 -22.50 24.70 l-2.40 3.60 -3.80 -0.05 c-2.10 -0.05 -4.15 -0.15 -4.55 -0.20z"/>
  <path d="M508 507.95 c-2.55 -4.05 -10.80 -14.30 -14.50 -17.95 -10.50 -10.40 -24.25 -19.45 -36.05 -23.65 -2.30 -0.80 -3.25 -1.40 -3.35 -2.10 -0.15 -0.95 0.25 -1 11.25 -1.05 12.20 -0.05 18.50 -0.75 28.10 -3 6.95 -1.65 15.35 -4.25 20.55 -6.50 2.35 -1 4.65 -1.90 5.10 -2.05 1.20 -0.35 10.30 4.55 16.45 8.95 6.85 4.80 16.25 14.20 21.10 21.05 2.15 2.95 3.85 5.45 3.85 5.55 0 0.10 0.80 1.50 1.75 3.10 0.95 1.60 1.75 3.05 1.75 3.25 0 0.55 -7.05 4.80 -11.90 7.25 -11 5.45 -23.20 8.55 -37.15 9.45 l-5.30 0.35 -1.65 -2.65z"/>
  <path d="M258.75 445.70 c-20.60 -2.30 -42.30 -11.35 -58.75 -24.55 -15.10 -12.10 -28.05 -29.15 -34.75 -45.85 -1.20 -3.05 -1.60 -4.65 -1.25 -5 0.25 -0.25 0.50 -1.20 0.50 -2.10 0 -0.90 0.30 -1.70 0.60 -1.85 1.05 -0.35 -1.20 -3.05 -2.95 -3.55 -1.45 -0.45 -1.60 -0.75 -2.85 -5.75 -1.55 -6.45 -2.10 -10.30 -1.45 -10.70 0.85 -0.55 9.50 -2.35 15.30 -3.20 7.55 -1.10 23.20 -1.10 30.35 0.05 16.55 2.60 32.75 8.40 45.75 16.45 l4.50 2.75 0.45 4.80 c0.25 2.65 0.65 4.80 0.85 4.80 0.25 0 0.45 -1.70 0.45 -3.75 0 -2.55 0.20 -3.75 0.60 -3.75 1.15 0 7.90 5.60 7.90 6.55 0 0.70 0.45 1.05 1.50 1.30 1.05 0.20 3 1.85 6.45 5.45 13.60 14.20 24.05 32.60 28.75 50.70 2.15 8.20 3.05 13.55 2.35 13.95 -1 0.65 -13.90 3 -19.05 3.55 -6.40 0.65 -17.95 0.50 -25.25 -0.30z m-70.20 -76.55 c0.05 -3.55 0.40 -4.55 2 -5.45 1.20 -0.65 1.20 -0.65 -0.60 -0.70 -1.25 0 -1.95 0.25 -2.15 0.80 -0.50 1.30 -0.35 8.20 0.20 8.20 0.30 0 0.50 -1.30 0.55 -2.85z m19.85 -1.75 c-0.10 -2.90 -0.35 -4.55 -0.65 -4.40 -0.25 0.15 -0.40 0.50 -0.30 0.75 0.70 1.50 0.60 5.35 -0.15 6.50 -0.75 1.15 -0.55 1.55 0.85 1.70 0.20 0.05 0.30 -2.05 0.25 -4.55z m7.20 0 c0.15 -5.20 0.20 -5.15 -0.55 -4.65 -0.70 0.40 -0.75 9.25 -0.10 9.25 0.25 0 0.55 -2.10 0.65 -4.60z m9.25 1.35 c-0.20 -1.80 -0.55 -3.65 -0.85 -4.15 -0.45 -0.65 -0.45 -0.40 -0.15 1.15 0.20 1.10 0.35 2.95 0.40 4.15 0 1.15 0.20 2.10 0.45 2.10 0.25 0 0.30 -1.45 0.15 -3.25z m16.15 1.95 c0.60 -1.55 0.60 -9.05 0 -10.45 -0.40 -0.90 -0.45 -0.85 -0.45 0.40 -0.05 1.35 -0.05 1.35 -3.70 1.35 -3.15 0 -3.85 0.15 -4.65 1.10 l-0.95 1.10 1.25 -0.85 c1.40 -1 4.40 -1.10 6.25 -0.25 1.25 0.55 1.30 0.70 1.15 4.35 l-0.15 3.80 -3.50 0.30 -3.50 0.25 3.90 0.10 c3.75 0.10 3.90 0.05 4.35 -1.20z m7.45 -0.55 c0 -1.05 -0.20 -2.80 -0.40 -3.90 -0.40 -1.75 -0.45 -1.55 -0.50 1.90 -0.05 2.25 0.15 3.85 0.45 3.85 0.30 0 0.50 -0.85 0.45 -1.85z m-75.70 0.85 c0.15 -0.25 0.05 -0.50 -0.20 -0.50 -0.90 0 -0.70 -5.75 0.25 -6.55 0.70 -0.55 0.70 -0.65 0 -1.05 -0.50 -0.30 -0.80 -1.15 -0.80 -2.40 0 -1.10 -0.15 -2 -0.35 -2 -0.25 0 -0.35 2.90 -0.25 6.50 0.15 5.90 0.50 7.40 1.35 6z m9.05 -2.70 c0.15 -1.05 0.05 -2.20 -0.40 -2.95 -0.60 -1.20 -0.65 -1.10 -0.65 1.90 0 3.35 0.50 3.85 1.05 1.05z m49.55 -2.40 c-0.10 -0.90 -0.20 -0.30 -0.20 1.35 0 1.65 0.10 2.40 0.20 1.65 0.10 -0.75 0.10 -2.10 0 -3z m-32.85 1.75 c-0.05 -1.20 -0.10 -1.30 -0.55 -0.50 -0.25 0.45 -0.35 1.10 -0.20 1.35 0.50 0.85 0.75 0.55 0.75 -0.85z"/>
  <path d="M455.75 446.20 c-0.55 -0.05 -3.45 -0.40 -6.50 -0.70 -3 -0.35 -7.90 -1.15 -10.85 -1.80 -2.95 -0.65 -5.45 -1.20 -5.60 -1.20 -1.70 0 4.25 -21.65 8.45 -30.75 7.65 -16.70 15.65 -27.55 30.50 -41.30 4.25 -3.95 22.25 -15.95 23.90 -15.95 0.20 0 1.95 -0.80 3.95 -1.75 5.10 -2.50 17.05 -6.45 23.90 -7.90 9.55 -2.05 14.65 -2.60 25 -2.50 10.05 0.05 14.60 0.55 24.65 2.70 6.15 1.35 5.90 0.95 4.65 7.20 -1.40 7.05 -1.90 8.80 -2.60 9.10 -0.45 0.15 -0.65 0.95 -0.60 2.10 0.10 2.45 -4.75 14.60 -8.70 21.80 -15.35 28.05 -41.40 48.85 -71.45 56.95 -6.75 1.80 -11.65 2.70 -19.45 3.55 -5.90 0.65 -16.35 0.90 -19.25 0.45z m38.95 -75 c0.15 -0.45 0.15 -2.60 0 -4.75 -0.35 -3.95 -0.35 -3.95 -1.80 -3.95 l-1.45 0 1 1.10 c1.20 1.25 1.75 3.60 1.45 6.40 -0.20 2.05 0.25 2.65 0.80 1.20z m6.65 -9.80 c-0.05 -2 -0.15 -0.40 -0.15 3.60 0 4 0.10 5.60 0.15 3.65 0.10 -2 0.10 -5.30 0 -7.25z m23.40 10.15 c0.15 -0.25 0.05 -0.60 -0.25 -0.80 -0.25 -0.15 -0.50 -1.60 -0.50 -3.15 0 -2.40 0.15 -2.95 1.15 -3.55 l1.10 -0.75 -1.25 -0.30 c-1.05 -0.25 -1.30 -0.65 -1.55 -2.50 -0.15 -1.30 -0.35 0.60 -0.35 4.65 -0.10 5.65 0 6.85 0.60 6.85 0.40 0 0.85 -0.20 1.05 -0.45z m15.85 -3.40 l0.15 -3.80 1.75 -0.65 1.75 -0.60 -1.85 -0.05 c-1.15 -0.05 -1.90 -0.30 -1.90 -0.65 0 -0.40 -0.15 -0.45 -0.50 -0.10 -0.30 0.30 -0.55 2.45 -0.60 4.75 0 5.05 0 4.95 0.60 4.95 0.25 0 0.50 -1.70 0.60 -3.85z m19.30 -0.80 c0.10 -3.60 0 -4.35 -0.60 -4.35 -0.60 0 -0.70 0.25 -0.30 1.30 0.80 2.10 0.60 6 -0.35 6.95 -0.80 0.80 -0.75 0.85 0.15 0.65 0.85 -0.15 0.95 -0.65 1.10 -4.55z m7.30 0.30 c-0.25 -2 -0.10 -2.95 0.50 -3.90 0.80 -1.20 0.75 -1.25 -0.15 -1.25 -0.50 0 -1.05 0.30 -1.20 0.70 -0.45 1.15 0.25 8.45 0.75 7.70 0.20 -0.35 0.25 -1.85 0.10 -3.25z m-33.70 1.90 c0.70 -1.35 0.65 -3.20 -0.20 -4.30 -0.65 -0.90 -0.70 -0.65 -0.85 2.15 -0.20 3.20 0.10 3.85 1.05 2.15z m-25 -2.90 c0 -3.65 -0.35 -3.85 -1.05 -0.65 -0.40 1.85 0.05 4 0.80 4 0.15 0 0.25 -1.50 0.25 -3.35z m-23.90 -0.35 c0.10 -0.95 0 -1.60 -0.20 -1.50 -0.40 0.25 -0.60 3.20 -0.20 3.20 0.10 0 0.30 -0.75 0.40 -1.70z m32.90 -0.50 c0 -0.10 -0.35 -0.45 -0.75 -0.80 -0.60 -0.50 -0.75 -0.50 -0.75 0.20 0 0.45 0.35 0.80 0.75 0.80 0.40 0 0.75 -0.10 0.75 -0.20z m13.05 -3.25 c-0.40 -0.25 -1 -0.35 -1.40 -0.20 -1.05 0.40 -0.75 0.65 0.75 0.65 1 0 1.15 -0.15 0.65 -0.45z"/>
  <path d="M344.20 428.65 c-4.75 -3.55 -9.70 -9.10 -13.60 -15.15 -1.85 -2.85 -6.95 -12.65 -7.95 -15.25 -0.30 -0.80 -0.95 -2.40 -1.40 -3.50 -6.20 -15.05 -10.60 -32.50 -13.80 -55.25 -0.75 -5.10 -0.95 -28 -0.35 -33.25 1.50 -12.45 2.65 -18.85 5.10 -28.55 6.05 -24 16.60 -45.45 32.45 -66.20 5.70 -7.45 6.10 -7.90 14.25 -16.15 6.75 -6.75 7.45 -7.35 9.15 -7.35 1.50 0 2.15 0.40 4.10 2.45 1.30 1.35 2.85 2.90 3.45 3.40 2.15 1.75 9.05 9.40 13.90 15.40 21.30 26.50 35 59.35 38.75 92.75 0.15 1.50 0.40 3.55 0.50 4.50 0.65 4.70 0.80 20.95 0.30 27.75 -0.85 11.35 -3.05 24.90 -5.65 34.25 -2.10 7.75 -6.35 20.40 -8.15 24.25 -0.40 0.85 -1.15 2.55 -1.75 3.90 -0.70 1.60 -1.30 2.35 -2 2.35 -0.50 0 -1.05 -0.20 -1.25 -0.50 -0.35 -0.60 -16.75 -15.15 -20 -17.75 -9.15 -7.40 -21.25 -22.95 -25.95 -33.45 -5.30 -11.95 -5.60 -20.55 -0.70 -23.10 4.40 -2.25 12.85 2.25 20.05 10.65 4 4.75 8.35 10.35 8.35 10.80 0 0.20 0.20 0.35 0.45 0.35 0.20 0 0.55 -1.65 0.75 -3.60 0.50 -5.85 -1.15 -11.75 -4.50 -16.15 -1 -1.35 -1.10 -2.10 -1.15 -6.75 -0.05 -7.55 -0.90 -11.45 -3.50 -16.10 -6.80 -12 -22.40 -14.65 -37.10 -6.35 -4.90 2.80 -8 5.45 -11.05 9.55 -8.55 11.55 -9.35 27.45 -2.60 51.15 2.10 7.40 3.05 10.20 8.20 23.75 2.25 5.90 5.35 14.35 6.90 18.75 l2.75 8 0.05 6.50 c0 4.75 -0.25 7.35 -0.90 9.75 -1.10 3.95 -2.10 6 -3 6 -0.35 0 -1.75 -0.85 -3.10 -1.85z m39.75 -139.05 c4.25 -8.40 6.95 -18.30 6.25 -23 -0.70 -4.75 -3.45 -8.20 -7.15 -8.85 -2.30 -0.40 -5.05 0.70 -6.50 2.55 -0.55 0.65 -1.25 1.10 -1.60 0.95 -0.40 -0.15 -0.95 0.30 -1.30 1 -0.45 1 -0.40 1.25 0.15 1.25 0.50 0 0.70 0.60 0.70 2.05 0 2.20 1 3.45 5.95 7.40 2.55 2.05 4 4.95 4.05 8.10 0 1.95 -1.30 8.10 -2.30 10.65 -0.75 1.95 0.40 0.55 1.75 -2.10z m-19.95 -2 c0 -0.25 -0.90 -1.85 -2 -3.50 l-2 -3.10 5.50 0 c5.10 0 5.50 0.05 5.50 0.95 0 0.55 0.25 1.15 0.50 1.30 0.30 0.20 0.50 -0.25 0.50 -1 0 -0.70 0.35 -1.40 0.75 -1.55 0.95 -0.40 1 -2.70 0.05 -2.70 -0.65 0 -1.30 -1.40 -1.30 -2.85 0 -1 1.90 -0.75 2.15 0.25 0.15 0.45 0.25 0.15 0.30 -0.70 0.05 -1.05 -0.35 -1.90 -1.40 -2.90 -1.05 -1.05 -1.70 -2.40 -2.35 -5 -0.45 -1.95 -1.65 -5.10 -2.65 -7.05 -1 -1.90 -1.85 -3.70 -1.95 -3.90 -0.10 -0.25 1.45 -0.35 3.50 -0.30 3.80 0.10 5.15 -0.20 4.65 -1.10 -0.45 -0.70 -8.75 -0.60 -8.75 0.15 0 0.35 -0.30 0.25 -0.85 -0.20 -2.70 -2.35 -6.90 -3.10 -9.65 -1.65 -2.90 1.50 -4.50 7.50 -2.90 11 0.60 1.35 1.05 1.50 5.60 2 1.60 0.20 3.85 0.75 5 1.25 2.30 0.95 5.20 4.25 4.15 4.65 -0.35 0.15 -0.20 0.30 0.30 0.30 0.95 0.05 3.10 4.05 3.65 6.95 0.30 1.55 0.25 1.60 -1.30 1.60 -1.15 0 -2.05 -0.45 -3.05 -1.45 -1.35 -1.45 -1.40 -1.45 -1.55 -0.40 -0.15 0.95 -0.50 1.10 -2.50 1.25 -2.85 0.20 -4.35 -1.05 -4.45 -3.50 -0.05 -0.90 -0.15 -1.25 -0.30 -0.75 -0.35 1.30 -0.90 1.05 -3 -1.35 -3.95 -4.50 -9.75 -7.80 -13.70 -7.80 -3.85 0 -6.35 1.70 -7.45 5.15 -0.50 1.60 -0.45 2.25 0.30 4.40 1.25 3.45 3.40 5.95 5.15 5.95 0.75 0 2.80 -0.60 4.60 -1.30 2.60 -1.05 3.75 -1.25 6.05 -1.05 3.45 0.30 8.35 2.80 12.05 6.15 2.55 2.30 2.85 2.45 2.85 1.80z m6.50 -39.60 c2.05 0 3.05 -0.15 2.70 -0.50 -0.25 -0.25 -2.25 -0.35 -4.85 -0.15 -2.75 0.20 -4.15 0.45 -3.75 0.75 0.35 0.20 1.10 0.30 1.65 0.15 0.55 -0.10 2.45 -0.25 4.25 -0.25z m6.25 -7.50 c-0.15 -0.25 -0.85 -0.50 -1.50 -0.50 -0.65 0 -1.35 -0.25 -1.50 -0.50 -0.20 -0.35 -0.60 -0.35 -1.25 0 -1.20 0.65 -5.80 0.65 -7.05 0 -0.75 -0.40 -0.95 -0.35 -0.95 0.20 0 0.40 0.30 0.85 0.65 0.95 1.20 0.50 11.90 0.35 11.60 -0.15z m-6.30 -10 c-0.45 -0.25 -1.40 -0.30 -2.25 0 -1.35 0.40 -1.30 0.40 0.80 0.45 1.60 0 2 -0.10 1.45 -0.45z m0.55 -6.30 c0 -0.10 -1.50 -0.15 -3.35 -0.10 l-3.40 0.05 2.75 0.30 c2.60 0.30 4 0.20 4 -0.25z m2.50 -8.95 c0 -0.60 -0.80 -0.75 -4.60 -0.70 -5.05 0.05 -5 0.20 0.35 0.90 1.95 0.25 3.65 0.45 3.90 0.50 0.20 0 0.35 -0.30 0.35 -0.70z m-1.55 -7.05 c0.85 -0.20 1.55 -0.65 1.55 -1 0 -0.55 -0.20 -0.60 -0.90 -0.15 -0.65 0.40 -1.95 0.40 -4.50 0.10 -3.50 -0.45 -4.50 -0.25 -3.85 0.85 0.35 0.55 5.25 0.65 7.70 0.20z m-2.55 -10.75 c-0.90 -0.35 -1.65 -0.35 -2.25 0 -0.70 0.40 -0.45 0.50 1.35 0.50 2.10 -0.05 2.15 -0.05 0.90 -0.50z"/>
  <path d="M437.50 382.10 c0 -0.30 0.25 -1.15 0.55 -1.95 1.75 -4.50 5.40 -21.20 7.05 -32.15 1 -6.95 1.15 -9.55 1.10 -25 0 -13.20 -0.20 -18.70 -0.85 -23.45 -0.65 -4.95 -0.70 -6.40 -0.20 -6.95 1.35 -1.70 10.45 -8.60 15.60 -11.90 11.30 -7.25 22.90 -11.90 37.65 -14.95 6.45 -1.35 6.30 -1.40 7.30 3.40 1.95 8.90 2.25 12.40 2.10 23.85 -0.20 11.80 -0.60 15 -3.10 24.75 -1.40 5.50 -2.50 8.95 -4.30 13.50 l-1.20 3 -4.55 1.85 c-9.10 3.70 -19.10 9.60 -28.30 16.65 -3.25 2.45 -7 5.30 -8.35 6.25 -1.35 0.95 -2.45 2 -2.50 2.25 0 0.30 -1.05 1.55 -2.30 2.75 -2.75 2.70 -8.95 9.85 -12.85 14.95 -1.55 2 -2.85 3.40 -2.85 3.15z"/>
  <path d="M293.75 376.75 c-4.10 -6 -13.75 -15.80 -22 -22.35 -9.05 -7.15 -21.15 -14.40 -30.90 -18.40 -2.10 -0.90 -4.05 -1.95 -4.30 -2.45 -0.95 -1.70 -4.15 -11.45 -5.35 -16.15 -2.60 -10.30 -2.90 -12.95 -2.90 -25.65 0 -10.35 0.15 -12.80 1.10 -17.75 1.75 -9.25 1.50 -8.75 4.50 -8.65 6.65 0.30 22.50 5.40 33.05 10.70 7.55 3.80 16.25 9.70 22.50 15.30 l2.25 2 -0.60 4.20 c-3.60 24.90 -1.30 54.20 6.20 80.60 0.20 0.65 0 0.85 -0.90 0.85 -0.80 -0.05 -1.60 -0.70 -2.65 -2.25z"/>
  <path d="M377.45 314.60 c-3.55 -2.25 -6.45 -6.85 -6.45 -10.15 0 -1.70 0 -1.70 2.45 -0.45 3.40 1.70 6.55 6.10 7.30 10.15 0.45 2.30 -0.20 2.40 -3.30 0.45z"/>
 </g>
 <g fill="#d5a374">
  <path d="M280.20 548.20 c0.90 -0.85 2.35 -0.80 2.70 0.20 0.10 0.40 -0.40 0.60 -1.65 0.60 -1.65 0 -1.75 -0.05 -1.05 -0.80z"/>
  <path d="M297.50 548.50 c0 -0.25 0.45 -0.50 1 -0.50 0.55 0 1 0.25 1 0.50 0 0.30 -0.45 0.50 -1 0.50 -0.55 0 -1 -0.20 -1 -0.50z"/>
  <path d="M436.30 548.25 c0.20 -0.40 0.50 -0.75 0.75 -0.75 0.25 0 0.45 0.35 0.45 0.75 0 0.40 -0.35 0.75 -0.75 0.75 -0.45 0 -0.60 -0.30 -0.45 -0.75z"/>
  <path d="M452 548.50 c0 -0.25 0.55 -0.50 1.25 -0.50 0.70 0 1.25 0.25 1.25 0.50 0 0.30 -0.55 0.50 -1.25 0.50 -0.70 0 -1.25 -0.20 -1.25 -0.50z"/>
  <path d="M301 548.05 c0 -0.55 1.05 -0.95 1.90 -0.70 1.05 0.40 0.65 1.15 -0.65 1.15 -0.70 0 -1.25 -0.20 -1.25 -0.45z"/>
  <path d="M432.50 547.80 c0.30 -0.40 0.90 -0.60 1.30 -0.45 1.15 0.45 0.80 1.15 -0.60 1.15 -1.10 0 -1.20 -0.10 -0.70 -0.70z"/>
  <path d="M457 548 c0 -0.25 0.35 -0.50 0.75 -0.50 0.40 0 0.75 0.25 0.75 0.50 0 0.30 -0.35 0.50 -0.75 0.50 -0.40 0 -0.75 -0.20 -0.75 -0.50z"/>
  <path d="M304.50 547.50 c0 -0.25 0.35 -0.50 0.75 -0.50 0.40 0 0.75 0.25 0.75 0.50 0 0.30 -0.35 0.50 -0.75 0.50 -0.40 0 -0.75 -0.20 -0.75 -0.50z"/>
  <path d="M459.50 547.50 c0 -0.25 0.35 -0.50 0.75 -0.50 0.40 0 0.75 0.25 0.75 0.50 0 0.30 -0.35 0.50 -0.75 0.50 -0.40 0 -0.75 -0.20 -0.75 -0.50z"/>
  <path d="M306.50 547 c0 -0.25 0.35 -0.50 0.75 -0.50 0.40 0 0.75 0.25 0.75 0.50 0 0.30 -0.35 0.50 -0.75 0.50 -0.40 0 -0.75 -0.20 -0.75 -0.50z"/>
  <path d="M462 547 c0 -0.25 0.35 -0.50 0.75 -0.50 0.40 0 0.75 0.25 0.75 0.50 0 0.30 -0.35 0.50 -0.75 0.50 -0.40 0 -0.75 -0.20 -0.75 -0.50z"/>
  <path d="M308.50 546.50 c0 -0.25 0.35 -0.50 0.75 -0.50 0.40 0 0.75 0.25 0.75 0.50 0 0.30 -0.35 0.50 -0.75 0.50 -0.40 0 -0.75 -0.20 -0.75 -0.50z"/>
  <path d="M312.50 545.65 c0 -0.50 5.20 -2.65 7.15 -3 2.85 -0.55 1.20 0.80 -2.55 2.05 -4.20 1.40 -4.60 1.50 -4.60 0.95z"/>
  <path d="M467.50 545.60 c0 -0.25 0.75 -0.70 1.65 -0.95 3.55 -1.20 7.60 -2.80 7.85 -3.10 0.15 -0.20 1.15 -0.60 2.25 -0.95 1.10 -0.30 3.70 -1.70 5.80 -3.05 4 -2.60 6.45 -3.60 6.45 -2.60 0 1.25 -10.40 6.65 -17.95 9.25 -5.45 1.90 -6.05 2.05 -6.05 1.40z"/>
  <path d="M417.15 544.15 c-1.95 -0.65 -2.90 -1.65 -1.65 -1.65 0.30 0 0.50 0.20 0.50 0.50 0 0.25 0.35 0.35 0.75 0.20 0.40 -0.20 0.75 -0.05 0.75 0.25 0 0.30 0.30 0.40 0.70 0.25 0.40 -0.15 0.85 0 1.05 0.30 0.55 0.90 0.15 0.90 -2.10 0.15z"/>
  <path d="M256.90 542.10 c-0.50 -0.10 -0.90 -0.40 -0.90 -0.65 0 -0.65 1.35 -0.55 1.75 0.10 0.45 0.65 0.20 0.80 -0.85 0.55z"/>
  <path d="M322.50 541.85 c0 -0.60 3.95 -2.85 5 -2.85 1.25 0 0.25 0.90 -2.25 2.15 -1.90 0.90 -2.75 1.15 -2.75 0.70z"/>
  <path d="M328.30 538.75 c-0.15 -0.45 0 -0.75 0.45 -0.75 0.80 0 1 0.80 0.30 1.20 -0.25 0.15 -0.55 -0.05 -0.75 -0.45z"/>
  <path d="M330.80 537.25 c-0.15 -0.45 0 -0.75 0.45 -0.75 0.80 0 1 0.80 0.30 1.20 -0.25 0.15 -0.55 -0.05 -0.75 -0.45z"/>
  <path d="M333.80 535.25 c-0.15 -0.45 0.40 -1.10 1.40 -1.70 3.20 -2 3.95 -0.95 0.85 1.10 -1.55 1.05 -2 1.15 -2.25 0.60z"/>
  <path d="M493.35 533.25 c-0.15 -0.35 0.05 -0.80 0.45 -0.95 1.85 -0.70 2.35 0.05 0.75 1.05 -0.75 0.50 -1 0.45 -1.20 -0.10z"/>
  <path d="M339.85 530.75 c-0.20 -0.45 -0.05 -0.90 0.45 -1.10 1.10 -0.40 1.50 0.25 0.60 1.15 -0.70 0.70 -0.80 0.70 -1.05 -0.05z"/>
  <path d="M496.80 530.75 c-0.15 -0.45 0.15 -0.95 0.70 -1.25 0.55 -0.30 1 -1 1 -1.55 0 -1.35 1.20 -0.95 1.40 0.40 0.20 1.35 -2.65 3.55 -3.10 2.40z"/>
  <path d="M343.40 528.45 c0.35 -0.45 0.55 -1.10 0.50 -1.45 -0.20 -0.75 1.40 -1.85 1.95 -1.35 0.20 0.20 -0.40 1.10 -1.35 2 -0.95 0.90 -1.40 1.25 -1.10 0.80z"/>
  <path d="M495.50 522.05 c0 -0.85 0.90 -1.05 1.20 -0.30 0.15 0.45 0 0.75 -0.45 0.75 -0.40 0 -0.75 -0.20 -0.75 -0.45z"/>
  <path d="M356.95 511.85 c-0.40 -0.35 -1.05 -0.80 -1.45 -1 -0.40 -0.15 -0.05 -0.30 0.85 -0.30 1.70 -0.05 2.60 0.70 1.75 1.55 -0.30 0.30 -0.70 0.20 -1.15 -0.25z"/>
  <path d="M377.85 511.85 c-0.35 -0.95 0.65 -1.65 1.75 -1.20 0.45 0.20 0.35 0.30 -0.20 0.30 -0.45 0.05 -0.90 0.45 -1 0.95 -0.15 0.80 -0.20 0.80 -0.55 -0.05z"/>
  <path d="M488.95 511.75 c-0.05 -0.15 -0.10 -0.45 -0.15 -0.75 0 -0.25 -0.50 -0.80 -1.05 -1.20 -0.55 -0.45 -0.75 -0.80 -0.45 -0.80 0.55 0 1.70 1.15 2.40 2.40 0.20 0.30 0.10 0.60 -0.15 0.60 -0.30 0 -0.60 -0.10 -0.60 -0.25z"/>
  <path d="M219.40 510.15 c0.60 -0.10 1.10 -0.45 1.10 -0.70 0 -0.25 1.50 -0.45 3.30 -0.45 2.40 0 3.25 0.15 3.10 0.65 -0.15 0.40 -1.55 0.60 -4.45 0.65 -2.30 0.05 -3.70 0 -3.05 -0.15z"/>
  <path d="M508.80 509.30 c-0.50 -0.75 -0.60 -1.35 -0.30 -1.55 0.30 -0.15 0.50 0 0.50 0.40 0 0.40 0.55 0.90 1.25 1.05 1.45 0.35 1.70 1.30 0.30 1.30 -0.50 0 -1.30 -0.55 -1.75 -1.20z"/>
  <path d="M214 509.20 c0 -0.45 0.35 -0.70 0.85 -0.60 1.25 0.25 1.40 1.40 0.20 1.40 -0.60 0 -1.05 -0.30 -1.05 -0.80z"/>
  <path d="M515 509.50 c0 -0.70 2.25 -1.15 3.75 -0.80 2.10 0.55 1.40 1.30 -1.25 1.30 -1.35 0 -2.50 -0.20 -2.50 -0.50z"/>
  <path d="M210.25 508.95 c-0.20 -0.30 -0.20 -0.65 -0.05 -0.80 0.15 -0.20 0.30 -0.05 0.30 0.25 0 0.30 0.35 0.45 0.75 0.30 0.40 -0.20 0.75 -0.05 0.75 0.25 0 0.70 -1.35 0.70 -1.75 0z"/>
  <path d="M522.10 508.95 c0.30 -0.85 2.40 -1.25 2.40 -0.45 0 0.35 0.30 0.25 0.80 -0.20 0.90 -0.90 1.20 -0.95 2.15 -0.35 0.45 0.30 0.95 0.20 1.40 -0.25 0.60 -0.60 1.65 -0.85 2.95 -0.65 0.20 0 0.50 -0.20 0.70 -0.50 0.35 -0.60 2 -0.25 2 0.40 0 0.45 -6.15 1.90 -9.95 2.35 -2.15 0.30 -2.65 0.20 -2.45 -0.35z"/>
  <path d="M207.20 508.20 c0.45 -0.40 1 -0.60 1.30 -0.45 0.95 0.60 0.50 1.25 -0.80 1.25 -1.15 0 -1.20 -0.05 -0.50 -0.80z"/>
  <path d="M203.65 508 c-0.65 -0.25 -1.15 -0.70 -1.15 -1 0 -0.70 0.80 -0.65 1.60 0.15 0.35 0.40 0.95 0.60 1.30 0.45 0.30 -0.10 0.60 0.05 0.60 0.35 0 0.65 -0.80 0.65 -2.35 0.05z"/>
  <path d="M485.40 507 c-0.90 -0.80 -1.40 -1.50 -1.10 -1.50 0.25 0 1.15 0.70 1.95 1.50 1.85 1.95 1.25 1.95 -0.85 0z"/>
  <path d="M200.85 507.15 c-0.60 -0.55 -0.40 -1.15 0.40 -1.15 0.40 0 0.75 0.35 0.75 0.75 0 0.80 -0.60 1 -1.15 0.40z"/>
  <path d="M196.90 506.10 c-2.15 -0.70 -3.20 -1.60 -1.90 -1.60 1.50 0 5 1.30 5 1.85 0 0.80 -0.10 0.75 -3.10 -0.25z"/>
  <path d="M535 506.65 c0.05 -0.55 3.50 -2.10 6.55 -2.90 1.40 -0.40 2.75 -0.85 3.10 -1.10 0.35 -0.25 1.50 -0.75 2.60 -1.10 1.10 -0.40 2.10 -0.85 2.25 -1 0.15 -0.15 1.95 -1.15 4 -2.15 5.40 -2.65 8.80 -5 8.60 -6.05 -0.10 -0.45 0.10 -0.85 0.35 -0.85 0.75 0 1.70 2.05 1.20 2.50 -0.90 0.90 -9.15 5.70 -12.55 7.30 -6.55 3.10 -16.10 6.30 -16.10 5.35z"/>
  <path d="M192.50 504.50 c-0.40 -0.25 -0.55 -0.60 -0.40 -0.80 0.50 -0.45 1.90 0.15 1.90 0.80 0 0.60 -0.50 0.65 -1.50 0z"/>
  <path d="M186.55 502.10 c-2.30 -1 -4.30 -2.10 -4.40 -2.45 -0.15 -0.35 1.55 0.15 3.70 1.10 2.15 0.90 4.30 1.80 4.80 1.95 0.80 0.25 1.25 1.30 0.50 1.30 -0.25 0 -2.30 -0.85 -4.60 -1.90z"/>
  <path d="M479.05 500.75 c-1.70 -1.75 -3.70 -3.65 -4.45 -4.20 -0.75 -0.55 -1.20 -1.15 -1 -1.35 0.35 -0.30 5.65 4.10 8.60 7.25 1.05 1.05 1.25 1.55 0.75 1.55 -0.45 0 -2.20 -1.45 -3.90 -3.25z"/>
  <path d="M179.65 498.65 c-1.45 -0.70 -2.20 -1.65 -1.40 -1.65 0.70 0 3.25 1.60 3.25 2 0 0.60 0.15 0.60 -1.85 -0.35z"/>
  <path d="M499.75 497 c-0.50 -0.55 -0.65 -1 -0.40 -1 0.65 0 1.90 1.45 1.55 1.75 -0.15 0.15 -0.65 -0.20 -1.15 -0.75z"/>
  <path d="M496.95 493.65 l-1.70 -1.80 1.60 1.10 c1.70 1.15 2.40 1.95 2.05 2.35 -0.10 0.10 -1 -0.65 -1.95 -1.65z"/>
  <path d="M238.50 493 c-0.65 -0.40 -0.55 -0.55 0.35 -0.80 0.65 -0.20 1 -0.50 0.85 -0.75 -0.15 -0.25 0.15 -0.45 0.60 -0.45 0.50 0 1.35 -0.40 1.90 -0.85 0.60 -0.50 0.15 0.10 -0.95 1.25 -1.05 1.15 -1.95 2.10 -2 2.10 0 0 -0.35 -0.25 -0.75 -0.50z"/>
  <path d="M489.50 486.25 c-0.65 -0.70 -1.05 -1.35 -0.90 -1.55 0.15 -0.15 0.80 0.45 1.40 1.25 1.30 1.85 1.10 2 -0.50 0.30z"/>
  <path d="M558.75 486.45 c-0.60 -0.95 0.25 -1.15 1.10 -0.30 0.80 0.80 0.80 0.85 0.05 0.85 -0.45 0 -1 -0.25 -1.15 -0.55z"/>
  <path d="M306.90 484.65 c-0.50 -0.10 -0.90 -0.45 -0.90 -0.70 0 -0.70 0.80 -0.55 1.50 0.30 0.35 0.40 0.55 0.70 0.45 0.70 -0.10 -0.05 -0.60 -0.15 -1.05 -0.30z"/>
  <path d="M248.85 483.25 c-0.20 -0.45 -0.05 -0.90 0.45 -1.10 1.10 -0.40 1.50 0.25 0.60 1.15 -0.70 0.70 -0.80 0.70 -1.05 -0.05z"/>
  <path d="M251.35 481.25 c-0.20 -0.45 -0.05 -0.90 0.45 -1.10 1.10 -0.40 1.50 0.25 0.60 1.15 -0.70 0.70 -0.80 0.70 -1.05 -0.05z"/>
  <path d="M304.25 480.50 c0.15 -0.25 0.05 -0.50 -0.30 -0.50 -0.35 0 -0.45 -0.15 -0.30 -0.35 0.20 -0.15 -0.05 -0.60 -0.55 -0.95 -0.80 -0.65 -0.80 -0.65 0.05 -0.70 0.50 0 1.10 0.55 1.35 1.30 0.60 1.60 0.60 1.70 -0.05 1.70 -0.25 0 -0.35 -0.20 -0.20 -0.50z"/>
  <path d="M253.35 479.80 c-0.15 -0.35 -0.10 -0.85 0.05 -1.15 0.50 -0.70 4.95 -3.65 5.55 -3.65 0.30 0 0.55 -0.20 0.55 -0.50 0 -0.25 0.35 -0.50 0.75 -0.50 0.40 0 0.75 -0.20 0.75 -0.50 0 -0.25 0.35 -0.50 0.75 -0.50 0.40 0 1.85 -0.65 3.15 -1.50 1.35 -0.80 2.65 -1.50 2.90 -1.50 0.25 0 0.85 -0.45 1.35 -1 0.45 -0.55 1.30 -1 1.85 -1 0.55 0 1.85 -0.45 2.85 -1 1.05 -0.55 2.15 -1 2.50 -1 0.35 0 0.65 -0.20 0.65 -0.50 0 -0.25 0.90 -0.65 2 -0.80 1.10 -0.20 2 -0.50 2 -0.70 0 -0.20 1.35 -0.60 3 -0.85 1.70 -0.25 2.95 -0.30 2.90 -0.05 -0.10 0.25 -2.20 1.10 -4.65 1.95 -6.60 2.20 -16.80 7.35 -23.15 11.60 -3.65 2.50 -5.60 3.55 -5.75 3.15z"/>
  <path d="M479.25 477.95 c-1.90 -1.45 -3.20 -3.05 -1.70 -2.20 1.75 1.05 3.40 2.45 3.65 3.10 0.35 0.85 0.35 0.85 -1.95 -0.90z"/>
  <path d="M552.50 477 c-0.70 -0.55 -1 -1 -0.70 -1 0.30 0 0.95 0.45 1.45 1 1.15 1.25 0.85 1.25 -0.75 0z"/>
  <path d="M550 474 c-0.70 -0.55 -1 -1 -0.70 -1 0.30 0 0.95 0.45 1.45 1 1.15 1.25 0.85 1.25 -0.75 0z"/>
  <path d="M469.40 471.80 c-0.50 -0.35 -0.90 -0.80 -0.90 -0.95 0 -0.60 1.40 0.20 1.70 0.95 0.30 0.85 0.30 0.85 -0.80 0z"/>
  <path d="M545.25 469.50 c-1.35 -1.35 -2.25 -2.50 -1.95 -2.50 0.25 0 1.60 1.15 2.95 2.50 1.35 1.40 2.25 2.50 1.95 2.50 -0.25 0 -1.60 -1.10 -2.95 -2.50z"/>
  <path d="M465 469.50 c-0.40 -0.25 -0.55 -0.60 -0.35 -0.80 0.20 -0.20 0.65 -0.10 0.95 0.20 0.75 0.75 0.35 1.20 -0.60 0.60z"/>
  <path d="M461.65 468.15 c-1.75 -0.90 -2.25 -1.90 -0.75 -1.45 0.45 0.10 1.35 0.35 2 0.55 0.60 0.15 1.10 0.65 1.10 1.05 0 0.85 -0.30 0.85 -2.35 -0.15z"/>
  <path d="M455.75 465.75 c-1.65 -0.65 -3.95 -1.45 -5.10 -1.80 -2.70 -0.70 -2.90 -1.70 -0.25 -1.20 1 0.20 5.55 0.55 10.10 0.75 l8.25 0.35 -6.75 0.05 c-6.30 0.10 -6.65 0.15 -5.30 0.85 0.75 0.40 1.75 0.75 2.10 0.75 0.40 0 0.70 0.35 0.70 0.75 0 0.95 -0.05 0.90 -3.75 -0.50z"/>
  <path d="M266.85 463.65 c0.90 -0.10 2.50 -0.10 3.50 0 1.05 0.10 0.35 0.20 -1.60 0.20 -1.90 0 -2.75 -0.10 -1.90 -0.20z"/>
  <path d="M274.65 463.65 c1 -0.10 2.70 -0.10 3.75 0 1 0.10 0.15 0.20 -1.90 0.20 -2.05 0 -2.90 -0.10 -1.85 -0.20z"/>
  <path d="M259.15 463.15 c0.45 -0.10 1.25 -0.10 1.75 0 0.45 0.15 0.05 0.25 -0.90 0.25 -0.95 0 -1.35 -0.10 -0.85 -0.25z"/>
  <path d="M474.15 463.15 c0.45 -0.10 1.25 -0.10 1.75 0 0.45 0.15 0.05 0.25 -0.90 0.25 -0.95 0 -1.35 -0.10 -0.85 -0.25z"/>
  <path d="M255.15 462.65 c0.45 -0.10 1.25 -0.10 1.75 0 0.45 0.15 0.05 0.25 -0.90 0.25 -0.95 0 -1.35 -0.10 -0.85 -0.25z"/>
  <path d="M216.50 452 c-1.05 -0.35 -1.05 -0.40 -0.25 -0.45 0.55 0 1.35 0.20 1.75 0.45 0.90 0.55 0.25 0.55 -1.50 0z"/>
  <path d="M268.90 446.15 c0.60 -0.10 1.10 -0.50 1.10 -0.80 0 -0.35 0.20 -0.30 0.50 0.15 0.35 0.60 0.60 0.60 1.10 0.10 0.60 -0.60 5.70 -0.85 7.10 -0.30 2.10 0.80 0.30 1.20 -5.05 1.15 -3.25 -0.05 -5.40 -0.20 -4.75 -0.30z"/>
  <path d="M259.85 445.65 c-0.75 -0.70 -0.30 -1.20 1 -1.05 1.70 0.20 2.15 1.40 0.55 1.40 -0.70 0 -1.40 -0.15 -1.55 -0.35z"/>
  <path d="M282 445.55 c0 -0.80 0.95 -1.15 2 -0.80 1.50 0.50 1.20 1.25 -0.50 1.25 -0.80 0 -1.50 -0.20 -1.50 -0.45z"/>
  <path d="M451 445.25 c0 -0.75 1.30 -1 2.70 -0.45 1.40 0.55 0.85 1.20 -0.95 1.20 -1.20 0 -1.75 -0.25 -1.75 -0.75z"/>
  <path d="M471 445.55 c0 -0.80 1 -1.15 2.30 -0.85 1.80 0.45 1.45 1.30 -0.55 1.30 -0.95 0 -1.75 -0.20 -1.75 -0.45z"/>
  <path d="M255 444.75 c0 -0.40 0.45 -0.75 1 -0.75 0.55 0 1 0.35 1 0.75 0 0.40 -0.45 0.75 -1 0.75 -0.55 0 -1 -0.35 -1 -0.75z"/>
  <path d="M287 445 c0 -0.25 0.45 -0.50 1 -0.50 0.55 0 1 0.25 1 0.50 0 0.30 -0.45 0.50 -1 0.50 -0.55 0 -1 -0.20 -1 -0.50z"/>
  <path d="M447 444.75 c0 -0.80 0.85 -0.95 2.20 -0.45 1.30 0.50 0.90 1.20 -0.70 1.20 -1 0 -1.50 -0.25 -1.50 -0.75z"/>
  <path d="M477 445.05 c0 -0.75 0.80 -1.10 1.70 -0.75 1.25 0.45 0.95 1.20 -0.45 1.20 -0.70 0 -1.25 -0.20 -1.25 -0.45z"/>
  <path d="M251.50 444.20 c0 -0.50 0.35 -0.70 1.10 -0.60 1.60 0.25 1.75 1.40 0.20 1.40 -0.85 0 -1.30 -0.25 -1.30 -0.80z"/>
  <path d="M290.50 444.55 c0 -0.25 0.35 -0.60 0.80 -0.75 1.10 -0.45 1.20 -0.40 1.20 0.45 0 0.40 -0.45 0.75 -1 0.75 -0.55 0 -1 -0.20 -1 -0.45z"/>
  <path d="M442.05 444.55 c-0.70 -0.20 -1.35 -0.65 -1.45 -1 -0.20 -0.55 0.20 -0.60 1.70 -0.35 2.85 0.50 3.70 0.80 3.70 1.35 0 0.50 -2.15 0.50 -3.95 0z"/>
  <path d="M481 444.30 c0 -0.45 0.35 -0.60 1 -0.45 0.55 0.15 1 0.45 1 0.70 0 0.25 -0.45 0.45 -1 0.45 -0.55 0 -1 -0.30 -1 -0.70z"/>
  <path d="M249.35 443.75 c0.30 -0.85 1.25 -0.75 1.55 0.15 0.10 0.35 -0.25 0.60 -0.85 0.60 -0.70 0 -0.95 -0.25 -0.70 -0.75z"/>
  <path d="M293 444.05 c0 -0.25 0.45 -0.55 1 -0.70 0.65 -0.15 1 0 1 0.45 0 0.40 -0.45 0.70 -1 0.70 -0.55 0 -1 -0.20 -1 -0.45z"/>
  <path d="M484 444 c0 -0.25 0.35 -0.50 0.75 -0.50 0.40 0 0.75 0.25 0.75 0.50 0 0.30 -0.35 0.50 -0.75 0.50 -0.40 0 -0.75 -0.20 -0.75 -0.50z"/>
  <path d="M247 443.25 c0 -0.40 0.25 -0.75 0.50 -0.75 0.30 0 0.50 0.35 0.50 0.75 0 0.40 -0.20 0.75 -0.50 0.75 -0.25 0 -0.50 -0.35 -0.50 -0.75z"/>
  <path d="M296 443.20 c0 -0.55 0.30 -0.75 1 -0.55 0.55 0.15 1 0.05 1 -0.20 0 -0.25 0.90 -0.60 2 -0.75 1.20 -0.20 2 -0.60 2 -1 0 -0.40 0.35 -0.70 0.75 -0.70 0.45 0 0.75 0.45 0.75 1.25 0 0.95 -0.35 1.30 -1.35 1.55 -0.80 0.15 -2.20 0.50 -3.15 0.75 -2.45 0.65 -3 0.55 -3 -0.35z"/>
  <path d="M437.55 443.55 c-0.70 -0.20 -1.35 -0.65 -1.45 -1 -0.25 -0.80 1.95 -0.25 2.50 0.65 0.30 0.40 0.40 0.35 0.40 -0.05 0 -0.35 0.25 -0.65 0.50 -0.65 0.30 0 0.50 0.35 0.50 0.75 0 0.80 -0.50 0.85 -2.45 0.30z"/>
  <path d="M486 443.55 c0 -0.75 0.80 -1.10 1.70 -0.75 1.25 0.45 0.95 1.20 -0.45 1.20 -0.70 0 -1.25 -0.20 -1.25 -0.45z"/>
  <path d="M489 443.05 c0 -0.25 1 -0.70 2.20 -1 2.70 -0.65 2.80 -0.65 2.80 -0.10 0 0.25 -1 0.70 -2.20 1 -2.70 0.65 -2.80 0.65 -2.80 0.10z"/>
  <path d="M433.40 442.65 c-0.65 -0.15 -0.90 -0.70 -0.85 -1.80 0 -1.45 0.05 -1.50 0.45 -0.45 0.30 0.60 0.90 1.10 1.50 1.10 0.55 0 1 0.35 1 0.75 0 0.75 -0.45 0.85 -2.10 0.40z"/>
  <path d="M494.50 441.50 c0 -0.25 0.35 -0.50 0.75 -0.50 0.40 0 0.75 0.25 0.75 0.50 0 0.30 -0.35 0.50 -0.75 0.50 -0.40 0 -0.75 -0.20 -0.75 -0.50z"/>
  <path d="M496.50 441.10 c0 -0.25 0.60 -0.65 1.40 -0.85 0.75 -0.15 2.95 -1 4.85 -1.80 1.95 -0.85 3.95 -1.70 4.50 -1.90 0.55 -0.25 2.75 -1.15 4.90 -2.05 2.10 -0.90 4 -1.50 4.20 -1.30 0.15 0.15 0.20 0.40 0.10 0.50 -0.50 0.50 -8.30 3.90 -12.55 5.45 -5.75 2.20 -7.40 2.60 -7.40 1.95z"/>
  <path d="M232.65 439.65 c-1 -0.40 -0.75 -1.15 0.35 -1.15 0.55 0 1 0.35 1 0.75 0 0.75 -0.30 0.85 -1.35 0.40z"/>
  <path d="M226.40 437.15 c-2.80 -1.25 -4.05 -2.55 -1.75 -1.85 2.30 0.70 5.35 2.25 5.35 2.70 0 0.70 -0.35 0.60 -3.60 -0.85z"/>
  <path d="M301.50 438 c0 -0.25 0.35 -0.50 0.75 -0.50 0.40 0 0.75 0.25 0.75 0.50 0 0.30 -0.35 0.50 -0.75 0.50 -0.40 0 -0.75 -0.20 -0.75 -0.50z"/>
  <path d="M301 435.50 c0 -0.25 0.35 -0.50 0.75 -0.50 0.40 0 0.75 0.25 0.75 0.50 0 0.30 -0.35 0.50 -0.75 0.50 -0.40 0 -0.75 -0.20 -0.75 -0.50z"/>
  <path d="M219 433.50 c-0.40 -0.25 -0.55 -0.60 -0.35 -0.80 0.20 -0.20 0.65 -0.10 0.95 0.20 0.75 0.75 0.35 1.20 -0.60 0.60z"/>
  <path d="M300.50 433 c0 -0.25 0.35 -0.50 0.75 -0.50 0.40 0 0.75 0.25 0.75 0.50 0 0.30 -0.35 0.50 -0.75 0.50 -0.40 0 -0.75 -0.20 -0.75 -0.50z"/>
  <path d="M517.85 432.40 c-0.25 -0.80 1.05 -1.85 2.30 -1.90 1.30 0 1.05 0.70 -0.60 1.65 -1.10 0.65 -1.50 0.70 -1.70 0.25z"/>
  <path d="M345.85 429.90 c-0.75 -0.55 -1.35 -1.25 -1.35 -1.55 0 -0.40 0.20 -0.35 0.60 0.05 0.35 0.35 1.25 0.60 2 0.60 1.50 0 1.80 0.55 0.75 1.40 -0.45 0.35 -1 0.25 -2 -0.50z"/>
  <path d="M523.80 428.75 c-0.15 -0.45 0 -0.75 0.45 -0.75 0.80 0 1 0.80 0.30 1.20 -0.25 0.15 -0.55 -0.05 -0.75 -0.45z"/>
  <path d="M525.35 427.75 c-0.20 -0.45 -0.05 -0.90 0.45 -1.10 1.10 -0.40 1.50 0.25 0.60 1.15 -0.70 0.70 -0.80 0.70 -1.05 -0.05z"/>
  <path d="M299 427 c0 -0.25 0.35 -0.50 0.75 -0.50 0.40 0 0.75 0.25 0.75 0.50 0 0.30 -0.35 0.50 -0.75 0.50 -0.40 0 -0.75 -0.20 -0.75 -0.50z"/>
  <path d="M527.80 426.25 c-0.15 -0.45 0 -0.75 0.45 -0.75 0.80 0 1 0.80 0.30 1.20 -0.25 0.15 -0.55 -0.05 -0.75 -0.45z"/>
  <path d="M204 424.25 c-0.35 -0.45 -0.55 -0.90 -0.40 -1 0.15 -0.15 0.55 0.05 0.90 0.50 0.35 0.45 0.55 0.90 0.40 1 -0.15 0.15 -0.55 -0.05 -0.90 -0.50z"/>
  <path d="M349.65 424.15 c-0.90 -0.35 -0.80 -1.15 0.10 -1.15 0.40 0 0.75 0.35 0.75 0.75 0 0.40 -0.05 0.75 -0.10 0.70 -0.10 0 -0.45 -0.15 -0.75 -0.30z"/>
  <path d="M531.35 423.75 c-0.20 -0.45 -0.05 -0.90 0.45 -1.10 1.10 -0.40 1.50 0.25 0.60 1.15 -0.70 0.70 -0.80 0.70 -1.05 -0.05z"/>
  <path d="M298 423.50 c0 -0.25 0.35 -0.50 0.75 -0.50 0.40 0 0.75 0.25 0.75 0.50 0 0.30 -0.35 0.50 -0.75 0.50 -0.40 0 -0.75 -0.20 -0.75 -0.50z"/>
  <path d="M533.30 422.25 c-0.15 -0.45 0 -0.75 0.45 -0.75 0.80 0 1 0.80 0.30 1.20 -0.25 0.15 -0.55 -0.05 -0.75 -0.45z"/>
  <path d="M350.15 421.75 c-0.85 -0.95 -0.80 -1.25 0.10 -1.25 0.40 0 0.75 0.45 0.75 1 0 1.15 -0.05 1.20 -0.85 0.25z"/>
  <path d="M534.65 421.15 c-0.70 -0.25 1.85 -2.65 2.80 -2.65 0.80 0 0.65 0.75 -0.30 1.60 -1.25 1.05 -1.80 1.30 -2.50 1.05z"/>
  <path d="M351 417.50 c0 -0.55 -0.20 -1 -0.50 -1 -0.80 0 -0.60 -3.50 0.25 -4.30 0.65 -0.70 0.75 -0.40 0.75 2.75 0 1.95 -0.10 3.55 -0.25 3.55 -0.15 0 -0.25 -0.45 -0.25 -1z"/>
  <path d="M538.80 417.75 c-0.15 -0.45 0 -0.75 0.45 -0.75 0.80 0 1 0.80 0.30 1.20 -0.25 0.15 -0.55 -0.05 -0.75 -0.45z"/>
  <path d="M540.10 416.65 c-0.50 -0.20 -0.50 -0.40 -0.05 -0.95 0.65 -0.75 1.95 -0.95 1.95 -0.25 0 0.70 -1.20 1.45 -1.90 1.20z"/>
  <path d="M189.75 412 c-0.80 -0.80 -1.30 -1.60 -1.15 -1.75 0.10 -0.15 0.85 0.45 1.60 1.30 1.80 2 1.40 2.40 -0.45 0.45z"/>
  <path d="M349.50 408 c0 -0.25 0.35 -0.50 0.75 -0.50 0.40 0 0.75 0.25 0.75 0.50 0 0.30 -0.35 0.50 -0.75 0.50 -0.40 0 -0.75 -0.20 -0.75 -0.50z"/>
  <path d="M550 406.50 c-0.60 -0.40 -0.60 -0.50 0.15 -0.80 1.05 -0.40 1.75 0.10 1.05 0.80 -0.25 0.25 -0.75 0.30 -1.20 0z"/>
  <path d="M349 406 c0 -0.25 0.35 -0.50 0.75 -0.50 0.40 0 0.75 0.25 0.75 0.50 0 0.30 -0.35 0.50 -0.75 0.50 -0.40 0 -0.75 -0.20 -0.75 -0.50z"/>
  <path d="M409.75 398 c-0.80 -0.80 -1.30 -1.60 -1.15 -1.75 0.15 -0.15 0.55 0.05 0.90 0.50 0.35 0.40 1.25 0.75 2.05 0.75 1.55 0 1.80 0.45 0.85 1.40 -0.85 0.85 -1.05 0.80 -2.65 -0.90z"/>
  <path d="M403 391.75 c-0.65 -0.70 -1.05 -1.35 -0.90 -1.55 0.15 -0.15 0.80 0.45 1.40 1.25 1.30 1.85 1.10 2 -0.50 0.30z"/>
  <path d="M415.15 391.20 c-0.85 -0.90 -0.80 -1.20 0.25 -1.20 0.65 0 0.70 -0.10 0.20 -0.45 -0.50 -0.30 -0.45 -0.50 0.35 -0.70 0.65 -0.15 0.95 -0.05 0.75 0.25 -0.15 0.25 -0.45 1 -0.65 1.65 -0.25 0.95 -0.40 1.05 -0.90 0.45z"/>
  <path d="M278.45 386 c-0.65 -0.50 -0.95 -0.95 -0.65 -1 0.30 0 0.95 0.45 1.45 1 1.15 1.30 0.70 1.30 -0.80 0z"/>
  <path d="M276.90 384.15 c-0.85 -0.20 -1.70 -1.65 -0.95 -1.65 0.20 0 0.80 0.45 1.30 1 0.50 0.55 0.80 0.95 0.70 0.95 -0.10 -0.05 -0.55 -0.15 -1.05 -0.30z"/>
  <path d="M296.45 380.30 c-1.95 -2.40 -3.45 -4.65 -3.45 -5.25 0 -0.85 1.45 -0.05 1.75 1 0.20 0.55 0.85 1.20 1.45 1.45 1.05 0.40 2.60 3.80 1.90 4.15 -0.20 0.10 -0.95 -0.50 -1.65 -1.35z"/>
  <path d="M272 379.05 c-0.95 -0.50 -2 -1.45 -2.35 -2.10 -0.90 -1.80 -2.60 -2.95 -4.25 -2.95 -2.40 0 -3.55 -0.85 -3.15 -2.35 0.25 -1.05 -0.05 -1.65 -1.30 -2.95 -2.65 -2.70 -1.15 -1.95 3 1.50 3.65 3.10 10.55 9.80 10.05 9.80 -0.15 0 -1.05 -0.40 -2 -0.95z"/>
  <path d="M295 374.50 c0 -0.25 0.35 -0.50 0.75 -0.50 0.40 0 0.75 0.25 0.75 0.50 0 0.30 -0.35 0.50 -0.75 0.50 -0.40 0 -0.75 -0.20 -0.75 -0.50z"/>
  <path d="M187.15 373.90 c-1.10 -0.50 -1.15 -0.85 -1.15 -5.70 0 -2.80 0.20 -5.70 0.50 -6.40 0.50 -1.30 2.15 -1.80 2.75 -0.80 0.20 0.30 1.40 0.50 2.65 0.40 2.20 -0.15 2.35 -0.05 2.35 1.10 0 0.85 -0.55 1.60 -1.75 2.40 -2.15 1.40 -2.40 2.10 -2.45 5.65 -0.05 1.50 -0.30 3 -0.65 3.35 -0.70 0.70 -0.80 0.70 -2.25 0z"/>
  <path d="M163.40 370.60 c-1.10 -2.80 -3.40 -10.25 -3.40 -11 0 -0.10 0.35 0.20 0.80 0.60 0.40 0.45 1.25 0.80 1.85 0.80 1.65 0 3.35 1.40 4.15 3.35 0.75 1.75 0.55 3.65 -0.40 3.65 -0.30 0 -0.40 0.50 -0.20 1.30 0.25 0.85 0.10 1.60 -0.35 2.15 -0.40 0.45 -0.85 1.20 -0.90 1.75 -0.15 0.55 -0.75 -0.50 -1.55 -2.60z"/>
  <path d="M175.45 373.25 c-0.65 -0.65 -1.05 -0.75 -1.85 -0.30 -0.55 0.30 -1.60 0.55 -2.25 0.55 l-1.20 0 -0.25 -8.10 c-0.15 -4.50 -0.05 -8.55 0.20 -9 0.50 -1.05 2.15 -1.20 2.75 -0.25 0.20 0.30 0.50 1.60 0.65 2.85 l0.25 2.25 3.05 -0.15 c3.35 -0.20 4.85 0.30 5.75 2 1.75 3.30 1.40 7.35 -0.85 9.45 -1.55 1.45 -5.15 1.85 -6.25 0.70z m2.90 -3.55 c1 -1 1.20 -1.55 0.95 -2.80 -0.60 -3.05 -2.15 -3.70 -4.50 -1.85 -1.70 1.35 -1.70 3.15 0.10 4.70 1.70 1.55 1.85 1.55 3.45 -0.05z"/>
  <path d="M207 373.50 c-0.70 -0.20 -2.65 -0.25 -4.35 -0.10 -3.10 0.25 -3.15 0.20 -4.90 -1.60 -2.05 -2.20 -2.20 -3.75 -0.85 -7.55 1.15 -3.25 2.80 -4.15 6 -3.30 1.70 0.45 2.60 0.45 3.90 -0.05 2.90 -1.05 3.35 -0.10 3.25 6.65 -0.05 3.80 -0.30 5.80 -0.70 6.05 -0.70 0.45 -0.65 0.45 -2.35 -0.10z m-1.95 -3.95 c1.70 -1.70 1.85 -3.15 0.45 -4.55 -1.65 -1.65 -3.80 -1.30 -4.95 0.85 -0.80 1.55 -0.70 2.35 0.50 3.85 1.30 1.65 2.20 1.65 4 -0.15z"/>
  <path d="M213.65 373.60 c-0.90 -0.60 -1 -11.45 -0.10 -12.25 0.50 -0.40 2.30 -0.55 5.85 -0.45 l5.10 0.15 0.85 1.60 c0.50 1 0.90 3.35 1.05 6.20 0.25 4.60 0.25 4.60 -1.05 4.90 -0.70 0.20 -1.75 0.05 -2.35 -0.25 -0.85 -0.45 -1 -0.85 -0.75 -1.90 0.20 -0.75 0.35 -1.45 0.35 -1.60 0.05 -0.15 -0.10 -1.45 -0.35 -2.90 -0.35 -2.55 -1.20 -3.60 -2.85 -3.60 -1.75 0.05 -2.15 0.90 -2.15 5.10 -0.05 2.30 -0.20 4.45 -0.45 4.80 -0.40 0.65 -2.20 0.80 -3.15 0.20z"/>
  <path d="M230.85 372.45 c-1.60 -1.80 -2.20 -6.60 -1.20 -9.05 1.10 -2.65 2 -3.10 5.85 -3 l3.35 0.15 0.30 -1.95 c0.45 -2.80 2.05 -3.55 4.65 -2.15 1.60 0.85 1.70 1 0.60 0.75 -1.15 -0.25 -1.40 -0.15 -1.40 0.60 -0.15 11.20 -0.30 14.75 -0.85 15.25 -0.40 0.40 -2.40 0.65 -5.35 0.70 -4.60 0.05 -4.75 0.05 -5.95 -1.30z m7.55 -5 c0.15 -2.15 0.05 -2.35 -1.35 -2.95 -1.30 -0.50 -1.75 -0.50 -2.80 0.20 -0.95 0.65 -1.25 1.25 -1.25 2.75 0 1.05 0.15 2.05 0.35 2.25 0.20 0.20 1.40 0.30 2.65 0.20 l2.25 -0.15 0.15 -2.30z"/>
  <path d="M246.15 373.40 c-0.55 -0.70 -0.05 -11.40 0.65 -13.10 0.25 -0.65 0.10 -1.15 -0.55 -1.60 -1.70 -1.25 0.15 -0.70 2.70 0.75 3 1.80 10.05 6.60 10.05 6.90 0 0.10 -0.45 0.05 -1 -0.10 -0.95 -0.30 -1 -0.10 -0.95 3.25 0.10 3.85 -0.25 4.50 -2.40 4.50 -0.60 0 -1.20 -0.20 -1.35 -0.40 -0.10 -0.20 -0.40 -2.90 -0.60 -5.95 -0.30 -5.20 -0.40 -5.60 -1.55 -6.10 -0.65 -0.30 -1.30 -0.55 -1.45 -0.55 -0.10 0 -0.15 2.85 -0.10 6.40 l0.15 6.35 -1.55 0.15 c-0.85 0.10 -1.75 -0.15 -2.05 -0.50z"/>
  <path d="M290.85 373.10 c-0.50 -0.50 -0.70 -1.10 -0.50 -1.25 0.15 -0.20 0.65 0.10 1.05 0.70 0.90 1.30 0.50 1.75 -0.55 0.55z"/>
  <path d="M471.35 373.30 l-1.85 -0.55 2.60 -2.50 c1.45 -1.40 2.25 -2.05 1.75 -1.45 -0.60 0.75 -0.70 1.15 -0.30 1.55 0.45 0.45 1.20 0.25 2.90 -0.75 2.35 -1.30 4.05 -1.30 4.05 0.05 0 0.65 -4.55 3.60 -6.25 4 -0.55 0.15 -1.85 -0.05 -2.90 -0.35z"/>
  <path d="M485.85 373.35 c-1.60 -0.50 -3.20 -3.55 -3.45 -6.75 -0.25 -2.55 -0.20 -2.65 1.75 -4.40 1.75 -1.60 2.20 -1.75 3.80 -1.50 1 0.15 3.20 0.30 4.90 0.30 l3.05 0 0.35 5.30 c0.50 7.35 0.45 7.45 -4.90 7.45 -2.35 0 -4.85 -0.15 -5.50 -0.40z m6.40 -3.40 c0.55 -0.85 -0.20 -3.70 -1.30 -4.90 -1.35 -1.45 -3.45 -1.25 -4.25 0.40 -0.65 1.30 -0.15 3.95 0.90 4.65 0.95 0.55 4.30 0.50 4.65 -0.15z"/>
  <path d="M499.70 373.40 c-0.30 -0.35 -0.40 -4.25 -0.30 -9 0.20 -8.20 0.20 -8.40 1.25 -8.40 2.30 0 2.40 0.35 2.25 9.30 l-0.15 8.45 -1.30 0.15 c-0.70 0.10 -1.50 -0.15 -1.75 -0.50z"/>
  <path d="M508.40 372.50 c-2.70 -1.70 -3.20 -2.85 -2.70 -6.65 0.60 -4.35 1.20 -4.85 5.60 -4.85 2.05 0 4.25 0.25 4.85 0.60 2.05 1.10 3.45 3.60 3 5.35 -0.25 0.95 -0.55 1 -3.80 0.80 -1.90 -0.10 -3.60 -0.30 -3.70 -0.45 -0.15 -0.10 0.45 -0.60 1.30 -1 0.95 -0.50 1.40 -1.05 1.25 -1.55 -0.40 -1 -2 -1.40 -3.20 -0.75 -1.30 0.70 -1.40 4.40 -0.10 5.95 l0.85 1.10 3.40 -1.25 3.35 -1.30 0 1.15 c-0.05 0.60 -0.45 1.55 -0.90 2.15 -2.25 2.65 -5.65 2.95 -9.20 0.70z"/>
  <path d="M522.05 373.55 c-0.55 -0.35 -0.65 -2.05 -0.60 -8.30 0.05 -4.30 0.25 -8.15 0.40 -8.55 0.35 -0.90 2.35 -0.90 3.15 0.05 0.30 0.40 0.50 1.55 0.40 2.60 -0.15 2.10 -0.45 2 4.25 1.30 1.65 -0.25 2.05 -0.05 3.85 1.75 1.90 1.85 2 2.15 2 4.95 0 1.65 -0.30 3.30 -0.60 3.75 -2 2.40 -5.90 3.70 -7.30 2.30 -0.45 -0.45 -0.90 -0.45 -1.85 0 -1.55 0.70 -2.75 0.75 -3.70 0.15z m7.95 -4.05 c1.85 -1.85 1.05 -5 -1.20 -5 -2.80 0.05 -4.35 3.70 -2.20 5.20 1.50 1.05 2.20 1 3.40 -0.20z"/>
  <path d="M538.40 373.50 c-0.70 -0.45 -0.80 -1.35 -0.75 -6.20 0.10 -5.90 0.55 -7.30 2.40 -7.30 0.45 0 1.25 0.40 1.70 0.85 0.70 0.70 1.10 0.75 2.40 0.25 1.85 -0.70 2.50 -0.25 2.25 1.65 -0.15 1.45 -0.65 1.90 -3 2.75 -1.35 0.45 -1.40 0.60 -1.40 4.20 0 2.90 -0.15 3.75 -0.80 4 -1.10 0.40 -1.80 0.35 -2.80 -0.20z"/>
  <path d="M549.50 371.65 c-1.65 -2.55 -1.70 -3.60 -0.50 -8.20 0.65 -2.30 2.60 -3.25 5.65 -2.70 1.15 0.20 3.10 0.40 4.35 0.45 l2.25 0.05 0.30 5.50 c0.15 3.60 0.10 5.70 -0.25 6.05 -0.30 0.35 -2.75 0.75 -5.40 0.95 l-4.85 0.35 -1.55 -2.45z m7.75 -2 c0.60 -0.60 0.75 -1.30 0.55 -2.60 -0.40 -2.45 -1.35 -3.25 -3.45 -2.85 -2.50 0.45 -3.10 1.35 -2.35 3.55 0.90 2.70 3.50 3.65 5.25 1.90z"/>
  <path d="M565.35 373.65 c-0.15 -0.25 -0.40 -2.80 -0.60 -5.70 -0.45 -6.85 -0.10 -7.65 3.10 -7.15 2.30 0.35 8.15 -1 8.15 -1.90 0 -0.20 -0.20 -0.40 -0.50 -0.40 -0.25 0 -0.50 -0.20 -0.50 -0.50 0 -0.25 0.35 -0.50 0.75 -0.50 1 0 0.95 0.40 -0.30 4.75 -0.80 2.65 -1.25 3.60 -1.75 3.40 -0.40 -0.15 -0.70 -0.70 -0.70 -1.20 0 -1.30 -2.05 -1.25 -3.25 0.05 -0.70 0.80 -0.90 1.70 -0.80 4.05 0.05 2.10 -0.15 3.40 -0.70 4.25 -0.75 1.15 -2.45 1.65 -2.90 0.85z"/>
  <path d="M294 371 c0 -0.25 0.35 -0.50 0.75 -0.50 0.40 0 0.75 0.25 0.75 0.50 0 0.30 -0.35 0.50 -0.75 0.50 -0.40 0 -0.75 -0.20 -0.75 -0.50z"/>
  <path d="M286.95 368.65 l-1.70 -1.80 1.60 1.10 c1.70 1.15 2.40 1.95 2.05 2.35 -0.10 0.10 -1 -0.65 -1.95 -1.65z"/>
  <path d="M293.50 369 c0 -0.25 0.35 -0.50 0.75 -0.50 0.40 0 0.75 0.25 0.75 0.50 0 0.30 -0.35 0.50 -0.75 0.50 -0.40 0 -0.75 -0.20 -0.75 -0.50z"/>
  <path d="M293 366.50 c0 -0.25 0.35 -0.50 0.75 -0.50 0.40 0 0.75 0.25 0.75 0.50 0 0.30 -0.35 0.50 -0.75 0.50 -0.40 0 -0.75 -0.20 -0.75 -0.50z"/>
  <path d="M292.50 364.25 c0 -0.40 0.35 -0.75 0.75 -0.75 0.40 0 0.75 0.35 0.75 0.75 0 0.40 -0.35 0.75 -0.75 0.75 -0.40 0 -0.75 -0.35 -0.75 -0.75z"/>
  <path d="M281.15 362.40 c-1.40 -1.50 -1.45 -1.90 -0.15 -1.90 1.10 0 1.70 0.95 1.40 2.25 -0.10 0.70 -0.35 0.65 -1.25 -0.35z"/>
  <path d="M453.65 362.60 c-0.95 -0.60 -0.30 -2.65 1.20 -3.95 1.35 -1.05 4.15 -1.60 4.15 -0.75 0 0.90 -4.75 5.05 -5.35 4.70z"/>
  <path d="M159.55 358.40 c0 -0.45 -0.20 -1.25 -0.35 -1.75 -0.25 -0.85 -0.25 -0.85 0.30 0 0.30 0.50 0.45 1.25 0.35 1.75 -0.20 0.75 -0.25 0.75 -0.30 0z"/>
  <path d="M425.15 357.75 c-0.85 -0.95 -0.80 -1.25 0.10 -1.25 0.40 0 0.75 0.45 0.75 1 0 1.15 -0.05 1.20 -0.85 0.25z"/>
  <path d="M576.15 356.65 c-0.95 -0.35 -0.80 -1 0.30 -1.30 0.70 -0.15 0.85 0 0.70 0.70 -0.15 0.55 -0.30 0.95 -0.35 0.90 0 0 -0.35 -0.15 -0.65 -0.30z"/>
  <path d="M290.50 354.25 c0 -0.40 0.35 -0.75 0.75 -0.75 0.40 0 0.75 0.35 0.75 0.75 0 0.40 -0.35 0.75 -0.75 0.75 -0.40 0 -0.75 -0.35 -0.75 -0.75z"/>
  <path d="M330.50 353 c0 -0.25 0.35 -0.50 0.75 -0.50 0.40 0 0.75 0.25 0.75 0.50 0 0.30 -0.35 0.50 -0.75 0.50 -0.40 0 -0.75 -0.20 -0.75 -0.50z"/>
  <path d="M577.20 351.80 c-0.30 -0.35 -0.55 -1.75 -0.50 -3.20 0.05 -2.10 0.20 -2.60 0.90 -2.60 1.25 0 1.35 0.50 0.75 3.60 -0.45 2.10 -0.75 2.65 -1.15 2.20z"/>
  <path d="M262.90 347.95 c-0.80 -0.55 -1.40 -1.30 -1.40 -1.60 0 -0.35 0.35 -0.20 0.70 0.25 0.35 0.50 0.80 0.75 0.95 0.60 0.15 -0.15 0.50 0.20 0.85 0.75 0.65 1.30 0.60 1.30 -1.10 0z"/>
  <path d="M427.50 346.25 c0 -0.40 -0.20 -0.75 -0.50 -0.75 -0.25 0 -0.50 -0.20 -0.50 -0.50 0 -0.25 0.35 -0.50 0.75 -0.50 0.45 0 0.75 0.45 0.75 1.25 0 0.70 -0.10 1.25 -0.25 1.25 -0.15 0 -0.25 -0.35 -0.25 -0.75z"/>
  <path d="M308.10 344 c0 -0.95 0.10 -1.35 0.25 -0.85 0.10 0.45 0.10 1.25 0 1.75 -0.15 0.45 -0.25 0.05 -0.25 -0.90z"/>
  <path d="M328.50 343.50 c0 -0.25 0.35 -0.50 0.75 -0.50 0.40 0 0.75 0.25 0.75 0.50 0 0.30 -0.35 0.50 -0.75 0.50 -0.40 0 -0.75 -0.20 -0.75 -0.50z"/>
  <path d="M565.15 343.65 c0.45 -0.10 1.25 -0.10 1.75 0 0.45 0.15 0.05 0.25 -0.90 0.25 -0.95 0 -1.35 -0.10 -0.85 -0.25z"/>
  <path d="M479.80 342.75 c-0.15 -0.45 0 -0.75 0.45 -0.75 0.80 0 1 0.80 0.30 1.20 -0.25 0.15 -0.55 -0.05 -0.75 -0.45z"/>
  <path d="M196.90 342.65 c0.60 -0.10 1.60 -0.10 2.25 0 0.60 0.10 0.10 0.20 -1.15 0.20 -1.25 0 -1.75 -0.10 -1.10 -0.20z"/>
  <path d="M428 342.25 c0 -0.40 -0.20 -0.75 -0.50 -0.75 -0.25 0 -0.50 -0.20 -0.50 -0.50 0 -0.25 0.35 -0.50 0.75 -0.50 0.45 0 0.75 0.45 0.75 1.25 0 0.70 -0.10 1.25 -0.25 1.25 -0.15 0 -0.25 -0.35 -0.25 -0.75z"/>
  <path d="M557.65 342.65 c0.45 -0.10 1.25 -0.10 1.75 0 0.45 0.15 0.05 0.25 -0.90 0.25 -0.95 0 -1.35 -0.10 -0.85 -0.25z"/>
  <path d="M250.85 340.90 c-2.75 -1.50 -3.60 -2.40 -2.15 -2.40 0.35 0 0.95 0.35 1.30 0.75 0.35 0.40 0.95 0.75 1.35 0.75 0.35 0 0.80 0.35 0.95 0.75 0.20 0.40 0.50 0.65 0.70 0.50 0.45 -0.25 1.25 0.65 0.90 1 -0.10 0.10 -1.45 -0.50 -3.05 -1.35z"/>
  <path d="M361.55 340.45 c-0.35 -1.10 -0.55 -2.15 -0.40 -2.25 0.10 -0.10 0.45 0.70 0.80 1.85 0.35 1.10 0.55 2.15 0.40 2.25 -0.10 0.10 -0.45 -0.70 -0.80 -1.85z"/>
  <path d="M328 340 c0 -0.25 0.35 -0.50 0.75 -0.50 0.40 0 0.75 0.25 0.75 0.50 0 0.30 -0.35 0.50 -0.75 0.50 -0.40 0 -0.75 -0.20 -0.75 -0.50z"/>
  <path d="M428.50 337.75 c0 -0.70 -0.20 -1.25 -0.50 -1.25 -0.25 0 -0.50 -0.45 -0.50 -1 0 -0.55 0.35 -1 0.75 -1 0.55 0 0.75 0.60 0.75 2.25 0 1.25 -0.10 2.25 -0.25 2.25 -0.15 0 -0.25 -0.55 -0.25 -1.25z"/>
  <path d="M307.10 336.25 c-0.05 -1.10 -0.25 -2.90 -0.40 -4 -0.20 -1.60 -0.15 -1.80 0.30 -1.15 0.30 0.50 0.45 2.25 0.35 4 -0.10 2 -0.20 2.40 -0.25 1.15z"/>
  <path d="M288.50 337 c0 -0.25 0.35 -0.50 0.75 -0.50 0.40 0 0.75 0.25 0.75 0.50 0 0.30 -0.35 0.50 -0.75 0.50 -0.40 0 -0.75 -0.20 -0.75 -0.50z"/>
  <path d="M242 336.50 c-0.40 -0.25 -0.60 -0.60 -0.45 -0.75 0.40 -0.40 1.95 0.25 1.95 0.80 0 0.55 -0.55 0.55 -1.50 -0.05z"/>
  <path d="M492.50 336.20 c0 -0.40 0.25 -0.70 0.60 -0.70 0.30 0 0.95 -0.30 1.35 -0.65 0.45 -0.35 1.80 -1 3 -1.35 1.20 -0.40 1.95 -0.80 1.60 -0.90 -0.80 -0.25 -0.70 -1.10 0.20 -1.10 0.40 0 0.75 0.30 0.75 0.65 0 1.30 -1.30 2.35 -4.35 3.55 -2.50 0.95 -3.15 1.10 -3.15 0.50z"/>
  <path d="M238.45 335 c-1.70 -0.90 -2.80 -2.30 -2.20 -2.90 0.15 -0.15 0.25 -0.05 0.25 0.25 0 0.30 1 0.90 2.25 1.35 1.25 0.50 2.25 1.20 2.25 1.60 0 0.90 -0.35 0.85 -2.55 -0.30z"/>
  <path d="M360.15 332.75 c0 -1.35 0.10 -1.90 0.20 -1.10 0.10 0.75 0.10 1.85 0 2.50 -0.10 0.60 -0.20 0 -0.20 -1.40z"/>
  <path d="M306.70 322.25 c0 -4.40 0.10 -6.15 0.15 -3.85 0.10 2.30 0.10 5.90 0 8 -0.05 2.10 -0.15 0.25 -0.15 -4.15z"/>
  <path d="M328.50 327 c0 -0.55 -0.20 -1 -0.50 -1 -0.25 0 -0.50 -0.20 -0.50 -0.50 0 -0.25 0.35 -0.50 0.75 -0.50 0.50 0 0.75 0.50 0.75 1.50 0 0.85 -0.10 1.50 -0.25 1.50 -0.15 0 -0.25 -0.45 -0.25 -1z"/>
  <path d="M288 322.75 c0 -2.55 0.15 -3.25 0.75 -3.25 0.60 0 0.75 0.70 0.75 3.25 0 2.55 -0.15 3.25 -0.75 3.25 -0.60 0 -0.75 -0.70 -0.75 -3.25z"/>
  <path d="M329.15 319.70 c-0.90 -0.95 -0.80 -1.70 0.25 -1.75 0.50 0 0.60 -0.15 0.25 -0.30 -0.95 -0.35 -0.80 -1.15 0.25 -1.15 0.70 0 0.75 -0.10 0.10 -0.50 -0.65 -0.40 -0.60 -0.50 0.15 -0.50 0.70 0 0.80 0.25 0.55 1.40 -0.90 3.50 -0.90 3.55 -1.55 2.80z"/>
  <path d="M379.50 315.70 c0 -0.15 0.35 -0.60 0.75 -1 0.65 -0.70 0.75 -0.65 0.75 0.25 0 0.60 -0.30 1.05 -0.75 1.05 -0.40 0 -0.75 -0.15 -0.75 -0.30z"/>
  <path d="M505.15 313.15 c-0.90 -0.35 -0.80 -1.15 0.10 -1.15 0.40 0 0.75 0.35 0.75 0.75 0 0.40 -0.05 0.75 -0.10 0.70 -0.10 0 -0.45 -0.15 -0.75 -0.30z"/>
  <path d="M427.50 310.05 c0 -0.80 0.30 -1.55 0.75 -1.75 0.60 -0.20 0.75 0.15 0.75 1.45 0 1.20 -0.25 1.75 -0.75 1.75 -0.50 0 -0.75 -0.50 -0.75 -1.45z"/>
  <path d="M505.65 310.75 c-0.85 -0.95 -0.80 -1.25 0.10 -1.25 0.40 0 0.75 0.45 0.75 1 0 1.15 -0.05 1.20 -0.85 0.25z"/>
  <path d="M289.50 309.75 c0 -0.70 -0.20 -1.25 -0.50 -1.25 -0.25 0 -0.50 -0.35 -0.50 -0.75 0 -0.40 0.35 -0.75 0.75 -0.75 0.55 0 0.75 0.55 0.75 2 0 1.10 -0.10 2 -0.25 2 -0.15 0 -0.25 -0.55 -0.25 -1.25z"/>
  <path d="M446.15 309.25 c0 -1.10 0.10 -1.50 0.20 -0.85 0.10 0.60 0.10 1.50 0 2 -0.15 0.45 -0.25 -0.05 -0.20 -1.15z"/>
  <path d="M307.15 307.25 c0 -1.10 0.10 -1.50 0.20 -0.85 0.10 0.60 0.10 1.50 0 2 -0.15 0.45 -0.25 -0.05 -0.20 -1.15z"/>
  <path d="M506.15 307.75 c-0.85 -0.95 -0.80 -1.25 0.10 -1.25 0.40 0 0.75 0.45 0.75 1 0 1.15 -0.05 1.20 -0.85 0.25z"/>
  <path d="M335.50 305.50 c-0.60 -0.40 -0.60 -0.50 0.15 -0.80 1.05 -0.40 1.75 0.10 1.05 0.80 -0.25 0.25 -0.75 0.30 -1.20 0z"/>
  <path d="M507 304.75 c0 -0.40 -0.20 -0.75 -0.50 -0.75 -0.25 0 -0.50 -0.20 -0.50 -0.50 0 -0.25 0.35 -0.50 0.75 -0.50 0.45 0 0.75 0.45 0.75 1.25 0 0.70 -0.10 1.25 -0.25 1.25 -0.15 0 -0.25 -0.35 -0.25 -0.75z"/>
  <path d="M427 302.95 c0 -1.20 1.15 -1.05 1.40 0.20 0.10 0.50 -0.15 0.85 -0.60 0.85 -0.50 0 -0.80 -0.45 -0.80 -1.05z"/>
  <path d="M507.50 299.25 c0 -0.70 -0.20 -1.25 -0.50 -1.25 -0.30 0 -0.50 -2.50 -0.50 -6.55 0 -5.15 0.15 -6.70 0.75 -7.25 0.65 -0.70 0.75 0.20 0.75 7.75 0 4.70 -0.10 8.55 -0.25 8.55 -0.15 0 -0.25 -0.55 -0.25 -1.25z"/>
  <path d="M228.20 291.75 c0 -4.65 0.10 -6.65 0.15 -4.40 0.10 2.25 0.10 6.10 0 8.50 -0.05 2.40 -0.15 0.60 -0.15 -4.10z"/>
  <path d="M426.50 299.25 c0 -0.40 0.35 -0.75 0.75 -0.75 0.40 0 0.75 0.35 0.75 0.75 0 0.40 -0.35 0.75 -0.75 0.75 -0.40 0 -0.75 -0.35 -0.75 -0.75z"/>
  <path d="M291 295.50 c0 -0.55 -0.20 -1 -0.50 -1 -0.25 0 -0.50 -0.35 -0.50 -0.75 0 -0.40 0.35 -0.75 0.75 -0.75 0.50 0 0.75 0.55 0.75 1.75 0 0.95 -0.10 1.75 -0.25 1.75 -0.15 0 -0.25 -0.45 -0.25 -1z"/>
  <path d="M347.85 295.80 c-0.25 -0.65 0.60 -1.30 1.70 -1.30 0.80 0 0.50 0.95 -0.50 1.45 -0.70 0.40 -1 0.35 -1.20 -0.15z"/>
  <path d="M426 295.75 c0 -0.40 0.35 -0.75 0.75 -0.75 0.40 0 0.75 0.35 0.75 0.75 0 0.40 -0.35 0.75 -0.75 0.75 -0.40 0 -0.75 -0.35 -0.75 -0.75z"/>
  <path d="M351 294.25 c0 -0.55 1.40 -1.20 2.65 -1.25 0.90 0 0.20 0.85 -1.15 1.35 -1.20 0.45 -1.50 0.45 -1.50 -0.10z"/>
  <path d="M354.50 293.10 c0 -0.60 2.90 -1.35 3.35 -0.90 0.45 0.45 0.10 0.65 -1.70 1.05 -1 0.20 -1.65 0.15 -1.65 -0.15z"/>
  <path d="M289 291.75 c-1 -1.20 -0.30 -1.40 0.75 -0.25 0.50 0.55 0.65 1 0.40 1 -0.30 0 -0.80 -0.35 -1.15 -0.75z"/>
  <path d="M359 292 c0 -0.25 0.45 -0.50 1 -0.50 0.55 0 1 0.25 1 0.50 0 0.30 -0.45 0.50 -1 0.50 -0.55 0 -1 -0.20 -1 -0.50z"/>
  <path d="M365.75 292.15 c0.55 -0.15 1.30 -0.50 1.65 -0.75 0.45 -0.40 0.60 -0.30 0.60 0.30 0 0.60 -0.45 0.80 -1.60 0.75 -1.10 -0.05 -1.30 -0.15 -0.65 -0.30z"/>
  <path d="M285.50 289.25 c-1.05 -1.25 -0.05 -1.55 1.15 -0.35 0.85 0.90 0.90 1.10 0.25 1.10 -0.40 0 -1.05 -0.35 -1.40 -0.75z"/>
  <path d="M425 289.50 c0 -0.25 0.35 -0.50 0.75 -0.50 0.40 0 0.75 0.25 0.75 0.50 0 0.30 -0.35 0.50 -0.75 0.50 -0.40 0 -0.75 -0.20 -0.75 -0.50z"/>
  <path d="M370.30 283.65 c-0.25 -0.80 -0.90 -0.90 -4.70 -0.85 l-4.40 0.05 -2.10 -2.85 c-1.15 -1.55 -2.55 -3.25 -3.05 -3.70 -1.05 -0.95 -0.95 -1.95 0.50 -3.55 0.50 -0.55 1.10 -1.65 1.40 -2.40 0.75 -1.90 2.55 -1.70 3.10 0.35 0.30 1.15 0.15 1.75 -0.85 3.05 -1.55 2 -1.50 3 0.05 4.05 1.65 1.05 3 0.60 2.50 -0.95 -0.15 -0.60 -0.45 -2 -0.60 -3.10 -0.25 -1.90 -0.15 -2.05 1.55 -2.95 2.05 -1.10 2.80 -0.75 4.15 1.85 0.70 1.40 0.70 1.50 -0.25 1.25 -0.55 -0.15 -1.25 -0.10 -1.60 0.10 -1.30 0.80 2.30 5.35 3.75 4.80 0.50 -0.15 0.80 0.40 1.05 2 0.15 1.20 0.50 2.35 0.75 2.50 0.65 0.40 0.55 -5.40 -0.25 -10.40 -0.60 -4 -0.55 -4.40 0.20 -4.40 0.45 0 1.50 0.75 2.40 1.65 1.60 1.65 1.60 1.65 1.50 6.50 -0.05 4.80 -0.10 4.95 -1.40 5.60 -0.75 0.40 -1.50 1.05 -1.65 1.50 -0.40 1 -1.70 0.95 -2.05 -0.10z"/>
  <path d="M423 280 c0 -0.25 0.35 -0.50 0.75 -0.50 0.40 0 0.75 0.25 0.75 0.50 0 0.30 -0.35 0.50 -0.75 0.50 -0.40 0 -0.75 -0.20 -0.75 -0.50z"/>
  <path d="M506 279 c0 -0.25 0.35 -0.50 0.75 -0.50 0.40 0 0.75 0.25 0.75 0.50 0 0.30 -0.35 0.50 -0.75 0.50 -0.40 0 -0.75 -0.20 -0.75 -0.50z"/>
  <path d="M268.50 277.45 c-0.95 -0.50 -1.40 -0.90 -1 -0.90 0.40 0 1.55 0.40 2.50 0.95 0.95 0.55 1.40 0.95 1 0.90 -0.40 0 -1.55 -0.40 -2.50 -0.95z"/>
  <path d="M422.50 277.50 c0 -0.25 0.35 -0.50 0.75 -0.50 0.40 0 0.75 0.25 0.75 0.50 0 0.30 -0.35 0.50 -0.75 0.50 -0.40 0 -0.75 -0.20 -0.75 -0.50z"/>
  <path d="M505.50 275.25 c0 -0.40 0.35 -0.75 0.75 -0.75 0.40 0 0.75 0.35 0.75 0.75 0 0.40 -0.35 0.75 -0.75 0.75 -0.40 0 -0.75 -0.35 -0.75 -0.75z"/>
  <path d="M421.50 274 c0 -0.25 0.35 -0.50 0.75 -0.50 0.40 0 0.75 0.25 0.75 0.50 0 0.30 -0.35 0.50 -0.75 0.50 -0.40 0 -0.75 -0.20 -0.75 -0.50z"/>
  <path d="M505 272 c0 -0.25 0.35 -0.50 0.75 -0.50 0.40 0 0.75 0.25 0.75 0.50 0 0.30 -0.35 0.50 -0.75 0.50 -0.40 0 -0.75 -0.20 -0.75 -0.50z"/>
  <path d="M333.55 268.50 c-0.50 -0.30 -0.40 -0.60 0.50 -1.15 1.65 -1.10 3.95 -1.60 3.95 -0.90 0 0.30 -0.30 0.55 -0.70 0.55 -0.35 0 -1.20 0.45 -1.90 0.95 -0.75 0.60 -1.45 0.80 -1.85 0.55z"/>
  <path d="M373.45 267.40 c-0.45 -0.80 -0.45 -1.15 0 -1.30 0.30 -0.10 0.55 -0.40 0.55 -0.65 0 -0.65 -1.20 -0.55 -1.90 0.15 -0.90 0.90 -2.10 0.90 -2.10 0 0 -0.50 -0.45 -1.80 -1 -2.95 -0.50 -1.20 -0.75 -2.15 -0.55 -2.15 0.25 0 0.55 0.35 0.75 0.75 0.35 1 2 0.95 2.80 0 0.55 -0.65 0.50 -1.10 -0.15 -2.50 -0.75 -1.55 -1.05 -1.75 -2.85 -1.75 -1.10 0 -2 0.25 -2 0.55 0 0.30 -0.80 -0.50 -1.75 -1.75 -0.95 -1.30 -1.75 -2.55 -1.75 -2.80 0 -0.35 2.10 -0.50 5.80 -0.40 4.95 0.15 5.95 0.30 6.40 1.05 0.40 0.65 0.35 1.20 -0.30 2.40 -1.20 2.10 -1.15 3.45 0.10 3.45 1.25 0 1.25 0.05 -0.05 2.60 -0.80 1.50 -1 2.65 -0.80 4.25 0.25 2.35 -0.25 2.80 -1.20 1.05z"/>
  <path d="M338.50 266.05 c0 -0.80 0.95 -1.15 2 -0.80 1.50 0.50 1.20 1.25 -0.50 1.25 -0.80 0 -1.50 -0.20 -1.50 -0.45z"/>
  <path d="M232.15 265.15 c0.45 -0.10 1.25 -0.10 1.75 0 0.45 0.15 0.05 0.25 -0.90 0.25 -0.95 0 -1.35 -0.10 -0.85 -0.25z"/>
  <path d="M377.80 258.25 c-0.25 -0.65 0.70 -1.25 2 -1.25 1.10 0 0.80 0.70 -0.50 1.30 -0.95 0.45 -1.30 0.45 -1.50 -0.05z"/>
  <path d="M354 252.40 c0 -1.45 4.95 -2.35 5.40 -1 0.10 0.40 -0.40 0.60 -1.65 0.60 -1 0 -2.25 0.25 -2.80 0.50 -0.70 0.40 -0.95 0.35 -0.95 -0.10z"/>
  <path d="M378.10 249.90 c-1.10 -1.10 -0.70 -3.35 0.65 -4 2.35 -1.05 3.85 1.95 1.85 3.75 -1.10 1 -1.70 1.05 -2.50 0.25z"/>
  <path d="M362.55 249.05 c-2.35 -2.35 -0.80 -3.15 6.20 -3.40 6.15 -0.20 7.45 0.25 6.90 2.40 -0.35 1.30 -0.35 1.30 -6.75 1.70 -4.95 0.30 -5.40 0.25 -6.35 -0.70z"/>
  <path d="M369.25 242.50 c-3.55 -0.20 -6.60 -0.40 -6.65 -0.45 -0.10 0 -0.05 -1.40 0.15 -3 0.20 -1.80 0.15 -3.35 -0.20 -3.95 -0.40 -0.75 -0.25 -1.40 0.90 -3.20 1.75 -2.75 1.85 -2.85 4.75 -3.20 3.50 -0.50 6.15 0.85 6.85 3.45 0.30 1.10 0.45 2.90 0.35 4 l-0.15 2.05 2.15 0.45 c1.20 0.25 2.30 0.75 2.45 1.20 0.40 0.95 -2 3.20 -3.25 3.05 -0.45 -0.05 -3.75 -0.25 -7.35 -0.40z m1.95 -4.65 c0.65 -0.45 0.85 -1.15 0.70 -2.60 -0.10 -1.60 -0.40 -2 -1.60 -2.40 -2.05 -0.70 -4.80 0.65 -4.80 2.40 0 2.60 3.50 4.20 5.70 2.60z"/>
  <path d="M407.75 238 c0.15 -0.25 0.05 -0.50 -0.25 -0.50 -0.30 0 -0.40 -0.20 -0.25 -0.50 0.15 -0.25 0.05 -0.50 -0.25 -0.50 -0.30 0 -0.45 -0.20 -0.30 -0.45 0.20 -0.25 0 -0.60 -0.30 -0.70 -0.50 -0.20 -0.50 -0.30 -0.05 -0.30 0.35 -0.05 0.95 0.60 1.40 1.45 0.90 1.70 0.90 2 0.20 2 -0.25 0 -0.35 -0.20 -0.20 -0.50z"/>
  <path d="M365.15 226.05 c-3.50 -0.35 -3.85 -0.55 -3.40 -2 0.40 -1.30 1.65 -1.65 5.50 -1.65 1.65 0 3.35 -0.15 3.70 -0.40 0.40 -0.20 0.75 -1.30 0.85 -2.40 0.20 -2.35 0.20 -2.35 -5.10 -2.85 -4.20 -0.40 -4.85 -0.70 -4.60 -2.30 0.15 -1.20 0.20 -1.20 6.65 -1.20 l6.50 0 0.10 3.75 c0.15 6.30 -0.15 7.40 -2.40 8.50 -1.95 1.05 -2.50 1.05 -7.80 0.55z"/>
  <path d="M362.75 209.50 c-0.15 -0.25 -0.25 -1.75 -0.20 -3.35 0.05 -1.60 -0.05 -3.70 -0.25 -4.70 -0.35 -1.50 -0.20 -2 0.95 -3.35 2.55 -3.05 5.15 -3.45 9.10 -1.50 2.20 1.10 3.35 2.95 3.25 5.30 -0.25 6.85 -0.35 7.30 -1.60 7.65 -1.95 0.55 -10.90 0.50 -11.25 -0.05z m9.25 -6.55 c0 -2.30 -1.05 -3.45 -3.15 -3.45 -2.50 0 -2.95 0.55 -2.75 3.30 l0.15 2.45 2.25 0.25 c2.85 0.35 3.50 -0.15 3.50 -2.55z"/>
  <path d="M371.30 194.55 c-0.20 -0.30 -0.10 -0.95 0.20 -1.50 1 -1.90 -2.30 -3.90 -5.55 -3.45 l-1.50 0.25 1.75 -1.80 1.80 -1.80 4.05 4.05 c3.85 3.85 3.95 4.05 2.65 4.05 -0.80 0 -1.80 0.15 -2.25 0.35 -0.50 0.20 -1 0.15 -1.15 -0.15z"/>
 </g>
</svg>