<?xml version="1.0" encoding="utf-8"?>
<!DOCTYPE svg PUBLIC "-//W3C//DTD SVG 1.0//EN" "http://www.w3.org/TR/2001/REC-SVG-20010904/DTD/svg10.dtd">
<svg version="1.0" xmlns="http://www.w3.org/2000/svg" width="736px" height="736px" viewBox="0 0 736 736" preserveAspectRatio="xMidYMid meet">
 <g fill="#000000">
  <path d="M357.05 581 c-37.95 -2.35 -71.60 -13.45 -98.15 -32.30 -17.55 -12.45 -31.25 -26.85 -41.45 -43.55 -2.25 -3.70 -2.95 -5.30 -2.95 -6.75 0 -1.80 0.10 -1.90 1.65 -1.90 1.35 0 2.20 0.60 5.10 3.55 4.85 4.90 5.75 5.25 3.20 1.20 -2.80 -4.50 -6.90 -13.70 -9.70 -21.80 -2.75 -8.05 -6.25 -21.50 -6.25 -24.10 0 -1.70 0.10 -1.85 1.50 -1.85 0.85 0 2.85 0.85 4.75 2 9.30 5.70 18.65 7.95 43.25 10.55 4.90 0.50 10.40 1.45 12.75 2.20 0.55 0.20 -1.05 -0.80 -3.60 -2.25 l-4.60 -2.55 -1 -3.10 c-2.05 -6.45 -2.30 -8.70 -2.30 -22.35 0 -11.20 0.20 -14.55 1.15 -21.50 1.95 -13.55 4.85 -27.35 8.70 -41.10 l2.05 -7.40 1.60 0 c1.30 0 1.75 0.35 2.70 2 2.90 5.15 9.40 11.85 17.90 18.40 l2.15 1.65 0 -1.55 c0 -1.35 0.15 -1.50 1.60 -1.50 1.35 0 2.40 0.80 6.85 5.15 2.95 2.80 9.20 8.35 14 12.35 9.75 8.15 15.05 13.50 18.60 18.95 2.60 3.95 2.95 5.50 1.90 9.20 -0.70 2.55 -0.20 2.95 0.55 0.50 0.80 -2.55 4.85 -10.65 8.65 -17.25 2.95 -5.15 3.15 -5.40 4.70 -5.40 1.15 0 1.80 0.30 2 0.90 2.55 7.65 6.40 11.65 20.80 21.75 l6.85 4.80 0 -1.70 c0 -1.60 0.10 -1.75 1.50 -1.75 1.80 0 4.80 1.45 8.25 4 5.60 4.15 8.55 8.90 9.10 14.75 l0.30 3.35 0.95 -1.15 c2.60 -3.20 6.95 -10.25 7.90 -12.85 1.55 -3.95 1.45 -8.30 -0.20 -13.10 -0.70 -2.05 -1.30 -4.35 -1.30 -5.10 0 -1.25 0.20 -1.40 1.75 -1.40 1.45 0 1.90 0.30 3.15 2.15 3.75 5.45 5.10 9.50 5.10 15.45 0 5.90 -0.75 8.70 -4.05 15.15 -1.55 3.05 -4.70 9.20 -7.05 13.75 -5.10 10 -7.40 18 -7.40 25.85 0 2.55 0 2.55 -3.60 5.80 -7.85 6.90 -22.95 15.65 -37.05 21.40 -3 1.20 -5.20 2.25 -5 2.30 0.25 0.10 3.90 -1 8.15 -2.40 21.20 -7 39.35 -17.95 51.85 -31.15 5.50 -5.80 9.25 -11.30 12.85 -18.85 9.65 -20.15 10.80 -41.45 3.35 -61.85 -1.25 -3.50 -4.05 -9.25 -3.30 -6.85 1 3.25 2.25 9.30 2.25 11.15 0 2.05 -0.05 2.10 -1.70 2.10 -0.95 0 -2.50 -0.45 -3.45 -1 -3.50 -2.10 -13.50 -4.95 -27.90 -8 -27.85 -5.90 -36.45 -8.20 -49.20 -13.05 -35.10 -13.30 -59.30 -39.15 -67.75 -72.45 -3.30 -13 -3.30 -31.50 -0.05 -44.25 6.65 -26 24.35 -47.10 48.30 -57.50 11.25 -4.90 18.95 -6.45 32.50 -6.45 10.60 -0.05 17.05 0.80 25.20 3.20 2.65 0.80 4.85 1.35 4.95 1.25 0.10 -0.05 -1.85 -2.35 -4.25 -5.05 -11.95 -13.40 -20.10 -24.70 -24.45 -33.95 -2.70 -5.60 -3.35 -8.65 -3.10 -14 0.15 -3.75 0.30 -4.35 1.70 -6.10 2.35 -2.95 4.65 -3.85 10.30 -4.05 5.55 -0.20 8.80 0.60 11.10 2.70 1.60 1.55 2.80 4.05 2.80 6 l0 1.35 1.05 -1.35 c0.55 -0.70 2.05 -1.90 3.35 -2.65 1.95 -1.15 3 -1.40 6.90 -1.55 5.25 -0.25 8.35 0.55 11.65 2.90 3 2.20 4.05 4.65 4.05 9.35 0 4.35 -0.55 5.65 -3 6.90 -1.95 1 -8.45 1 -10.85 0 -1 -0.40 -1.90 -0.70 -2 -0.55 -0.10 0.10 -0.30 1.25 -0.45 2.60 -0.70 5.85 5.10 21.75 11.60 31.70 l1.45 2.25 0.30 -6.50 c0.35 -7.45 1.20 -10.70 3.60 -13.70 2.45 -3.10 5.25 -4.25 10.60 -4.50 8.30 -0.30 14.30 1.95 19.90 7.50 4.35 4.35 5.85 7.55 6.25 13.25 0.30 4.95 -0.45 8.10 -2.35 9.85 -2.10 1.90 -4.15 2.50 -7.40 2.10 -2.50 -0.30 -3.15 -0.65 -4.95 -2.45 -2.60 -2.60 -4.10 -6.60 -4.75 -12.55 -0.60 -5.15 -1.50 -7.10 -4.05 -8.50 l-1.80 -0.95 -1.85 1.40 c-3.30 2.55 -4 4.85 -4 13.80 0 5.90 0.25 8.50 0.90 10.95 1.65 5.85 2.90 8.55 5.20 11.20 3.30 3.90 5.60 8 7.40 13.60 2.25 6.90 3.15 14 3.75 28.85 0.25 6.95 0.60 14.30 0.80 16.30 l0.35 3.60 -1.95 0 c-1.80 0 -2.10 -0.20 -3.45 -2.40 -2.90 -4.55 -8.70 -11.85 -10.35 -12.90 -1.30 -0.85 -2.65 -1.15 -6.45 -1.30 -4.40 -0.25 -5.20 -0.45 -9 -2.30 -7.10 -3.45 -11.95 -8.70 -15.75 -16.90 -1.65 -3.50 -1.85 -4.55 -2.10 -9.05 l-0.25 -5.05 -2.80 -0.75 c-13.70 -3.75 -25.35 -3.55 -35.65 0.65 -6.85 2.80 -13.75 8.95 -16.45 14.70 -2.35 5 -3.15 9.50 -2.45 14.15 2.50 16.30 16.70 33.20 38.60 45.80 3.55 2.05 14.85 7.60 17.55 8.60 2.20 0.80 2.35 1 2.35 2.65 l0 1.75 -3.35 -0.30 c-5.70 -0.50 -19.30 -3.85 -28.40 -6.95 -10.40 -3.55 -20.35 -8.35 -26.30 -12.70 -1.65 -1.25 -3.10 -2.20 -3.20 -2.10 -0.35 0.35 3.70 8.45 6 11.95 6.10 9.45 15.55 19.90 25 27.60 5.95 4.90 16.50 12.05 21.90 14.85 3.10 1.65 3.35 1.85 3.35 3.45 l0 1.70 -4.60 -0.30 c-10.25 -0.70 -23.20 -4.55 -33.85 -10.10 l-5.30 -2.75 2.25 2 c12.35 11 26.60 17.75 44.25 20.95 5.80 1.05 15.25 1.85 15.25 1.35 0 -0.75 -3.10 -6.30 -5.10 -9.10 -2.75 -3.90 -9 -10.50 -14.25 -15.15 -3.70 -3.20 -4.15 -3.85 -4.15 -5.35 0 -1.55 0.15 -1.70 1.45 -1.70 2.40 0 14.25 5.60 23.05 10.90 24.65 14.75 41.85 34.30 50.75 57.55 6.95 18.30 7.60 40.60 1.70 59.05 -3.50 10.90 -10.45 22.80 -18.70 32.20 l-4.40 4.95 3.60 -1.95 c5.80 -3.15 15.90 -10.95 21.55 -16.65 7 -7 14.20 -16.65 18.20 -24.15 0.95 -1.85 1.35 -2.15 2.95 -2.30 l1.85 -0.15 0 4.45 c0 4.50 -1.35 12.20 -2.75 15.80 -0.45 1.05 -0.70 2 -0.65 2.05 0.30 0.30 6.20 -6.85 8.55 -10.40 5.80 -8.65 10.40 -20.70 12.35 -32.35 1.65 -9.55 1.65 -22.10 0.05 -31.25 -5 -28.25 -18.15 -50.55 -38.20 -64.90 -2.20 -1.55 -4.40 -2.95 -4.95 -3.10 -0.75 -0.25 -0.90 -0.70 -0.80 -2.15 l0.15 -1.85 3 0.10 c8.95 0.30 25.10 6.50 41 15.65 l4.50 2.55 -2.75 -2.80 c-8.55 -8.80 -22.65 -18.55 -36.25 -25.05 -21.15 -10.10 -41.60 -15.85 -75.60 -21.20 l-3.65 -0.60 0 -1.65 0 -1.65 3.40 -0.45 c1.85 -0.20 10.45 -0.40 19.10 -0.35 17.05 0 20.05 0.30 34.50 3.30 33.25 6.85 62.40 22.05 83.05 43.25 13.95 14.35 22.70 29.45 26.95 46.65 4.70 19 3.90 41.05 -2.35 62.40 l-1.80 6.10 -1.60 0 -1.55 0 -0.60 -9.10 c-0.85 -13.10 -2.75 -22.70 -6.30 -32.60 -1.45 -4 -4.90 -11.30 -4.05 -8.55 1.10 3.45 2.25 16.85 2.25 25.80 0 17.80 -2.25 32.50 -6.85 44.20 -10.45 26.75 -30.20 49 -56.90 64.15 -19.40 10.95 -44.50 18.25 -71.80 20.85 -9.80 0.95 -32.55 1.35 -41.90 0.75z m-88.70 -76.55 c3.90 -1.90 6.05 -5.70 5.10 -9.15 -0.65 -2.40 -3.15 -5.60 -5.50 -7.05 -2.90 -1.85 -3.15 -1.90 -3.70 -0.65 -1.05 2.45 -9.35 2.30 -17.35 -0.25 -2.15 -0.70 -3.90 -1.15 -3.90 -1.05 0 0.80 6.05 10 8.10 12.35 5.40 6.20 11.95 8.40 17.25 5.80z m101.05 -32.15 c2.30 -1.60 4.20 -4.75 4.20 -7 0 -2.65 -2.25 -6.30 -6.15 -10.05 -2.05 -1.90 -5.30 -5.10 -7.25 -7.05 l-3.55 -3.55 -1.10 5.80 c-1.80 9.90 -1.25 15.80 2 19.70 3.35 4.05 7.95 4.90 11.85 2.15z m-63.15 -20.95 c3.45 -1.75 5.10 -3.40 6.60 -6.65 1.60 -3.50 1.40 -6.35 -0.60 -10.55 -1.65 -3.30 -6.15 -8.05 -10.25 -10.70 -9.45 -6.15 -11.75 -7.75 -14.20 -9.95 l-2.70 -2.50 -0.40 8.85 c-0.45 11.20 0.40 19.25 2.55 24.05 1.65 3.65 5.10 7.10 8.40 8.30 3 1.10 7.50 0.75 10.60 -0.85z m81 -255.15 c-3 -6.95 -4.30 -12.35 -4.60 -18.75 l-0.30 -5.85 -2.05 0.95 c-1.15 0.50 -3.20 0.95 -4.65 0.95 -1.90 0 -2.65 0.20 -2.65 0.70 0 1.65 4.10 10 7.10 14.55 2.55 3.75 8.55 11.75 8.75 11.60 0.05 -0.10 -0.65 -1.95 -1.60 -4.15z"/>
  <path d="M242.25 457.45 c-26.20 -8.65 -37.40 -11 -45.45 -9.45 -3.55 0.65 -8.25 3.15 -9.90 5.25 -0.70 0.90 -1.45 1.25 -2.75 1.25 l-1.80 0 0.25 -3.15 c0.55 -6.75 5.25 -13.20 10.95 -15.10 2.35 -0.80 2.50 -0.95 2.25 -2.20 -1.55 -7.20 -1.90 -11.60 -1.65 -21.75 0.40 -18.80 3.35 -28.30 16.30 -52.45 l3.15 -5.90 1.75 0.15 c1.75 0.15 1.80 0.20 2.70 3.80 3.20 12.70 15 31.35 31.25 49.30 2.45 2.70 4.75 5.30 5.10 5.80 0.50 0.70 0.50 2.45 0.05 9.05 -0.90 12.75 0.05 28.60 2 33.60 0.30 0.80 0.55 2.30 0.55 3.40 l0 1.95 -2.10 -0.05 c-1.20 0 -6.80 -1.60 -12.65 -3.50z m-7.10 -29.90 c3.25 -3.50 2.45 -8.45 -2.10 -12.75 -1.45 -1.40 -1.60 -1.40 -2.45 -0.65 -1.30 1.20 -4.85 1.10 -6.90 -0.15 -1.75 -1.10 -3.60 -3.90 -5.15 -7.80 l-0.95 -2.45 -0.40 2.50 c-0.25 1.40 -0.40 4.40 -0.40 6.75 0.15 8.75 3.85 15.10 10.05 17.25 2.65 0.90 5.85 -0.10 8.30 -2.70z"/>
  <path d="M244.30 397.50 c-8.40 -8.60 -9.30 -9.65 -9.30 -11.20 0 -0.95 0.25 -1.80 0.55 -1.90 0.30 -0.10 0.10 -0.70 -0.50 -1.50 -1.70 -2.10 -6.35 -11.80 -8.30 -17.15 -3 -8.35 -3.90 -13.75 -3.95 -23.75 -0.05 -9.40 0.25 -11.55 2.80 -19.85 l1.55 -5.15 1.75 0 1.75 0 -0.45 4.40 c-0.75 7.75 -0.55 15.95 0.50 20.25 0.95 3.90 1.80 5.05 1.80 2.40 0 -1.80 2.05 -9.75 4.10 -16.05 3.25 -9.95 9.35 -23.40 13.25 -29.30 1.65 -2.50 1.95 -2.70 3.70 -2.70 1.80 0 1.95 0.10 1.95 1.45 0 0.80 0.35 3.05 0.75 4.95 1.90 9.25 6.80 18.25 17.25 31.85 5.95 7.75 8.10 11 11.40 17.40 1.70 3.25 4.10 7.45 5.40 9.35 2.95 4.45 10.80 13.15 16.35 18.20 3.80 3.45 4.35 4.15 4.35 5.65 0 1.50 -0.15 1.65 -1.50 1.65 -3.85 0 -21.20 -10.55 -32.15 -19.50 -2.65 -2.20 -3.45 -3.15 -3.85 -4.75 -0.95 -3.80 -2.75 -6.55 -8 -12 -2.90 -3 -6.05 -6.60 -7 -7.90 -2.05 -2.85 -2.05 -2.85 -3.80 4.50 -2.95 12.15 -0.40 21.80 6.60 25 2.45 1.10 2.70 1.40 2.70 2.80 0 0.90 -0.75 4.30 -1.70 7.60 -0.90 3.30 -2.50 10.20 -3.55 15.40 l-1.90 9.35 -1.60 0 c-1.45 0 -2.70 -1.10 -10.95 -9.50z"/>
 </g>
 <g fill="#ffffff">
  <path d="M0 368 l0 -368 368 0 368 0 0 368 0 368 -368 0 -368 0 0 -368z m397.45 210.75 c27.15 -2.55 52.40 -9.85 71.80 -20.85 26.70 -15.15 46.45 -37.40 56.90 -64.15 8.30 -21.20 9.15 -54.85 2 -76.90 -0.70 -2.15 -1.15 -4 -1.05 -4.10 0.10 -0.15 1.35 1.50 2.75 3.65 8.45 12.85 12.95 28.30 14.30 49.10 l0.60 8.75 1.85 -6.25 c9.95 -34 5.85 -65.80 -11.80 -90.75 -20.80 -29.45 -54.60 -50.15 -95.80 -58.65 -14.70 -3.05 -17.45 -3.30 -34.25 -3.30 -8.50 0 -16.50 0.25 -17.75 0.50 l-2.25 0.50 3.75 0.65 c12.65 2.05 19.40 3.25 24.50 4.35 40.50 8.75 69.50 23.10 89.95 44.50 4.55 4.80 9.95 11.20 9.40 11.20 -0.10 0 -3 -1.85 -6.40 -4.15 -17.65 -11.75 -36 -19.90 -49.60 -22 -1.60 -0.25 -2.30 0.45 -0.90 0.90 1.45 0.45 8.35 5.50 12.25 8.95 12.70 11.20 23.15 28.65 28.20 47.15 2.95 10.75 3.80 17.30 3.80 28.90 0 8.70 -0.20 11.65 -1.15 17.25 -2.65 15.40 -9 29.30 -18.05 39.75 -3 3.45 -10.05 9.90 -10.40 9.50 -0.10 -0.10 0.60 -1.60 1.55 -3.35 3.45 -6.15 6.35 -16.55 6.35 -22.60 l0 -3.05 -1 1.25 c-0.55 0.70 -1.15 1.70 -1.30 2.20 -0.50 1.50 -4.55 7.60 -8.65 13.05 -8.40 11.15 -21.30 22.10 -33.40 28.35 -6.25 3.25 -12.65 6.05 -13 5.75 -0.10 -0.10 0.80 -0.95 2 -1.90 13.50 -10.85 25.20 -27.65 30.30 -43.45 11.15 -34.80 -1.85 -73.50 -33.70 -100.20 -11.55 -9.75 -21.90 -16.10 -37.25 -22.85 l-3.25 -1.45 3.75 3.40 c5.50 4.90 12.30 12.15 14.85 15.70 2.35 3.30 6.15 10.60 6.15 11.80 0 0.65 -1.05 0.70 -6.85 0.40 -23.25 -1.15 -43.80 -9.70 -58.85 -24.50 -3.75 -3.70 -9.80 -11.10 -9.80 -12 0 -0.20 1.30 0.75 2.90 2.10 5.45 4.70 16.25 11 24 13.95 7.70 2.90 17.10 5.30 23.35 5.90 l3.50 0.30 -4.75 -2.65 c-23 -13 -42.85 -33.05 -51 -51.65 -1.95 -4.50 -4.20 -11.25 -3.75 -11.25 0.15 0 1.20 1.05 2.35 2.35 7.35 8 23.50 16.20 42.15 21.35 5 1.35 14.95 3.60 18 4.05 1.80 0.25 1.90 0.20 0.75 -0.30 -0.70 -0.35 -3.95 -1.85 -7.25 -3.40 -15.90 -7.40 -28.10 -15.95 -36.90 -25.80 -7.85 -8.80 -12.30 -17.75 -13.45 -27.05 -0.55 -4.10 -0.50 -5.35 0.20 -8.80 1.15 -5.55 3.20 -9.65 6.75 -13.45 5.30 -5.60 11 -8.80 19.45 -10.80 5.80 -1.35 18.60 -1.20 25.45 0.30 2.75 0.60 6.05 1.40 7.35 1.85 2.30 0.75 2.30 0.75 1.80 2.30 -0.95 2.65 -0.15 7.75 1.80 12.10 3.75 8.15 8.65 13.45 15.75 16.90 3.80 1.85 4.60 2.05 9 2.30 3.80 0.15 5.15 0.45 6.45 1.30 1.65 1.05 7.45 8.35 10.35 12.90 1.70 2.70 2.45 3.10 2.05 1.05 -0.15 -0.80 -0.50 -7.45 -0.80 -14.80 -0.60 -15.55 -1.50 -22.65 -3.75 -29.60 -1.80 -5.60 -4.10 -9.70 -7.40 -13.60 -2.30 -2.65 -3.55 -5.35 -5.20 -11.20 -0.70 -2.55 -0.90 -5.05 -0.90 -12.45 0 -8.40 0.10 -9.45 1.05 -11.55 2.10 -4.50 6.40 -6.20 10.05 -3.95 2.25 1.35 3 3.10 3.55 8.30 0.95 8.15 4.05 13.75 8.25 14.70 5.10 1.10 8.85 -3.55 8.15 -10.15 -0.45 -4.45 -2.25 -7.90 -6.15 -11.80 -8.75 -8.70 -21.80 -10.10 -27.55 -2.95 -2.75 3.45 -3.35 6.45 -3.35 16.50 0 4.85 -0.10 8.65 -0.25 8.45 -12 -17.05 -18.45 -34.75 -16 -43.65 0.65 -2.30 1.30 -2.75 2.40 -1.70 3.55 3.15 10.50 3 12.80 -0.30 1.15 -1.60 1 -5.55 -0.20 -7.95 -3 -5.80 -12.70 -8.25 -18.75 -4.75 -7.95 4.70 -8.25 15.70 -0.85 33 2.05 4.80 6.20 12.80 9.25 17.75 1.60 2.65 0.40 1.55 -5 -4.55 -13.65 -15.50 -22.15 -29 -22.15 -35.20 l0 -2.20 2.65 0 c4.75 -0.05 8.85 -3 8.85 -6.40 0 -3.30 -2.80 -6.60 -6.65 -7.90 -3.15 -1.05 -8.40 -0.75 -11.05 0.55 -6.25 3.15 -6.95 9.85 -2.10 20.05 5.25 11.10 14.65 23.40 34.25 44.85 l1.30 1.40 -1.25 -0.45 c-0.70 -0.30 -2.55 -1.10 -4.15 -1.80 -4.50 -2.05 -13.55 -4.60 -19.60 -5.60 -7.35 -1.25 -19.65 -1.20 -26.45 0 -43.65 7.85 -74.05 50.15 -68.10 94.80 4.90 36.60 31 67.35 69.55 81.95 12.75 4.85 21.35 7.15 49.20 13.05 14.45 3.05 24.40 5.90 27.95 8 0.95 0.60 1.85 0.95 1.95 0.80 0.45 -0.45 -1.40 -7.90 -3.45 -13.80 -2.05 -5.95 -5.05 -12.35 -8.15 -17.35 l-1.80 -2.90 2.80 2.95 c5.80 6.25 11.90 16.65 15.15 25.80 5.90 16.90 6.10 36.30 0.60 53.50 -2 6.20 -6.30 15.15 -9.85 20.35 -13.90 20.75 -44.95 38.60 -79.25 45.60 -9.30 1.95 -26.05 4.05 -26.70 3.45 -0.10 -0.15 1.40 -0.50 3.40 -0.85 25.45 -4.15 58.85 -18.75 74.30 -32.40 3.60 -3.25 3.60 -3.25 3.60 -5.80 0 -7.85 2.30 -15.85 7.40 -25.85 2.35 -4.55 5.50 -10.70 7.05 -13.75 5.15 -10 5.40 -16.05 1.05 -24.15 -0.80 -1.55 -2.05 -3.50 -2.75 -4.35 l-1.20 -1.50 1.30 3.75 c1.75 5.10 1.85 11.90 0.20 16.10 -1.05 2.65 -4.30 7.85 -8.85 14.15 -1 1.40 -2.35 3.65 -3 5 l-1.20 2.50 0.40 -2.75 c0.20 -1.50 0.35 -4.65 0.30 -7 0 -3.50 -0.25 -4.75 -1.30 -7.05 -2.10 -4.55 -6.80 -9.10 -12.40 -11.95 l-2.25 -1.15 3.30 3.50 c1.85 1.95 3.90 4.80 4.65 6.30 1.45 3.10 2.15 7.70 1.55 10.65 l-0.35 1.95 -1.10 -3.75 c-2.10 -7.25 -6.40 -12.05 -17.80 -20 -14.15 -9.80 -18.05 -13.90 -20.70 -21.70 -0.40 -1.15 -0.20 -1.40 -3.20 3.70 -6.60 11.30 -10.70 21.05 -12.40 29.75 -1.20 5.80 -1.55 6 -1.95 0.90 -0.35 -4.65 0.15 -9.85 1.55 -15.35 l0.75 -2.90 -1.65 -2.75 c-3.60 -6.05 -9.65 -12.10 -22.65 -22.85 -3.30 -2.75 -8.35 -7.25 -11.20 -10 l-5.15 -5.05 0.30 2.95 c0.25 2.35 0.20 2.85 -0.30 2.45 -0.35 -0.25 -2.10 -1.60 -3.90 -2.95 -9.15 -6.85 -15.10 -12.80 -18.85 -18.85 l-1.50 -2.40 -2.05 7.40 c-3.85 13.85 -6.80 27.65 -8.70 41.15 -0.95 6.75 -1.15 10.40 -1.15 20 0 12.10 0.30 14.55 2.30 20.85 l1 3.10 4.35 2.35 c9.50 5.15 17.80 11.75 23 18.35 4 5.10 4.50 6.40 1 2.80 -5.75 -6 -11.10 -10.10 -17.10 -13.10 -5.65 -2.80 -10 -3.90 -18.80 -4.80 -24.60 -2.60 -33.95 -4.85 -43.25 -10.55 -1.80 -1.10 -3.25 -1.85 -3.25 -1.65 0 1.30 4.40 17.10 6.25 22.60 5.50 16.05 13.20 29.40 20.90 36.35 2.55 2.30 2.55 2.30 0.60 1.20 -5.70 -3.30 -12 -8.20 -17.85 -13.95 -2.15 -2.10 -3.90 -3.55 -3.90 -3.25 0 0.70 5.45 9.60 8.55 13.85 9.55 13.20 21.40 24.80 35.85 35.05 26.55 18.85 60.20 29.95 98.15 32.30 9.05 0.55 28.85 0.20 38.90 -0.75z m-141.95 -119.70 c0 -0.25 -0.25 -1.10 -0.55 -1.90 -1.85 -4.75 -2.95 -23.70 -2.05 -35.65 0.30 -4.45 0.30 -6.50 -0.10 -7.05 -0.30 -0.45 -2.55 -3.05 -5 -5.75 -16.15 -17.90 -28.05 -36.55 -31.25 -49.15 -0.45 -1.95 -1 -3.65 -1.15 -3.80 -0.30 -0.30 -4.95 8.15 -9.25 16.80 -4.95 10 -7.90 18.60 -9.75 28.20 -0.40 2.25 -0.65 7.30 -0.65 14.25 0.05 10.65 0.20 12.20 2.35 20.95 0.10 0.45 -0.85 1 -2.75 1.65 -5.45 1.85 -10.15 7.60 -11.10 13.65 l-0.30 2 1.30 -1.40 c2.15 -2.40 6.50 -4.70 10.05 -5.35 3.95 -0.75 11.95 -0.45 18.20 0.70 5.25 0.95 16.40 4.20 30.25 8.75 11.05 3.65 11.75 3.85 11.75 3.10z m1.95 -63.80 c1.10 -5.50 2.70 -12.35 3.55 -15.25 0.80 -2.90 1.50 -5.30 1.50 -5.35 0 -0.05 -1.20 -0.65 -2.70 -1.30 -2.90 -1.35 -4.65 -3.30 -6.40 -7.15 -0.90 -2 -1.15 -3.60 -1.30 -8.95 -0.20 -5.70 -0.05 -7.15 1.05 -11.75 1.20 -4.95 3 -10 3.55 -10 0.15 0 0.75 0.95 1.35 2.15 1.55 3 3.45 5.40 9.20 11.35 5 5.25 6.80 7.95 7.75 11.75 0.40 1.60 1.20 2.55 3.85 4.75 7.90 6.50 18.85 13.65 26.65 17.45 l4.25 2.10 -4.45 -4.15 c-5.90 -5.45 -13.60 -14.05 -16.50 -18.40 -1.30 -1.90 -3.70 -6.10 -5.40 -9.35 -3.30 -6.40 -5.45 -9.65 -11.40 -17.40 -10.45 -13.60 -15.35 -22.60 -17.25 -31.85 -0.40 -1.90 -0.75 -4.15 -0.75 -4.95 0 -0.80 -0.20 -1.45 -0.45 -1.45 -0.70 0 -3.80 5 -6.70 10.80 -7.95 15.90 -13.75 35.10 -13.90 45.85 l0 3.10 -1.75 -6.50 c-3.15 -11.90 -3.35 -13.25 -3 -21.25 0.15 -4 0.40 -8.15 0.55 -9.25 0.40 -3 -2.50 5.35 -3.55 10.40 -1.30 5.95 -1.20 16.95 0.20 23.65 1.40 6.40 3.85 13.20 7.50 20.60 3.15 6.45 6.45 10.30 11.20 13.10 l2.65 1.60 -1.95 -0.30 c-1.05 -0.15 -3.40 -0.95 -5.25 -1.80 l-3.30 -1.55 1.50 1.65 c2.20 2.45 17.45 17.90 17.55 17.75 0.05 -0.05 1 -4.60 2.15 -10.10z"/>
  <path d="M259.60 506.75 c-5.50 -1.55 -9.50 -4.95 -14.15 -12.20 -2.75 -4.25 -6.75 -11.90 -6.40 -12.25 0.10 -0.15 1.55 0.40 3.20 1.20 4.65 2.20 11.50 4.05 15.55 4.15 4 0.05 5.20 -0.50 5.20 -2.50 0 -1.40 0.60 -1.35 4.40 0.45 6 2.80 9.15 8.70 7.65 14.25 -1.55 5.70 -8.55 8.80 -15.45 6.90z"/>
  <path d="M361.40 475.30 c-3.95 -1.40 -6.50 -4.05 -7.70 -8.10 -1.20 -4 -0.90 -11.90 0.80 -20.45 0.85 -4.10 1.50 -7.60 1.50 -7.75 0 -0.10 0.85 1.20 1.85 2.90 1.05 1.75 3.20 4.40 4.90 5.95 11.10 10.35 12.45 12.25 12.45 17.40 0 4.95 -2.70 8.60 -7.40 10 -3 0.90 -4 0.90 -6.40 0.05z"/>
  <path d="M294.15 453.70 c-3.25 -1.20 -6.75 -4.65 -8.40 -8.25 -2.30 -5.10 -2.90 -11.25 -2.50 -25.35 0.15 -6.70 0.50 -12.65 0.70 -13.20 0.35 -0.95 0.45 -0.90 1.50 0.75 0.60 1 2.35 2.90 3.85 4.30 2.45 2.25 4.75 3.85 14.20 10 4.15 2.65 8.60 7.35 10.30 10.80 2.10 4.35 2.30 9.60 0.55 13.45 -1.50 3.25 -3.15 4.90 -6.60 6.70 -3.15 1.65 -10.25 2.05 -13.60 0.80z"/>
  <path d="M225.35 431.80 c-6.70 -2.40 -10.05 -8.70 -10.10 -19.05 0 -5.20 1.55 -17.25 2.20 -17.25 0.20 0 0.60 1.50 0.95 3.30 1.20 6.45 4.30 12.35 7.30 13.95 2.15 1.15 3.45 0.65 3.70 -1.40 l0.15 -1.30 1.85 1.05 c7.35 4.20 9.90 12.80 5.25 17.95 -2.75 3 -7.35 4.15 -11.30 2.75z"/>
 </g>
</svg>